<svg width="24" height="24" viewBox="0 0 24 24" fill="none" xmlns="http://www.w3.org/2000/svg">
<rect x="4.5" y="4.5" width="15" height="15" rx="7.5" stroke="#0E0B20"/>
<path d="M14.7918 15.0466C13.9995 15.6012 13.0378 15.9285 11.9996 15.9285C10.9614 15.9285 9.99972 15.6003 9.20741 15.0466C7.60571 15.9578 6.46977 17.619 6.32157 19.5619C6.31262 19.675 6.3517 19.7866 6.42906 19.8697C6.50642 19.9527 6.61472 19.9999 6.7279 19.9999H17.2721C17.3853 19.9999 17.4936 19.9527 17.571 19.8697C17.6483 19.7866 17.6874 19.675 17.6785 19.5619C17.5303 17.6182 16.3943 15.957 14.7926 15.0466H14.7918Z" fill="#0E0B20"/>
<path d="M11.9996 14.3C13.7985 14.3 15.2568 12.8417 15.2568 11.0428C15.2568 9.24392 13.7985 7.78564 11.9996 7.78564C10.2007 7.78564 8.74246 9.24392 8.74246 11.0428C8.74246 12.8417 10.2007 14.3 11.9996 14.3Z" fill="#0E0B20"/>
</svg>
