<svg width="24" height="24" viewBox="0 0 24 24" fill="none" xmlns="http://www.w3.org/2000/svg">
<path d="M2.21741 18.2436L10.3179 3.00789C10.4797 2.70363 10.7218 2.44901 11.0182 2.27143C11.3146 2.09384 11.654 2 12 2C12.346 2 12.6854 2.09384 12.9818 2.27143C13.2782 2.44901 13.5203 2.70363 13.6821 3.00789L21.7826 18.2436C21.9346 18.5311 22.0092 18.8529 21.9991 19.1776C21.989 19.5023 21.8945 19.8189 21.7248 20.0965C21.5551 20.3741 21.3161 20.6032 21.0309 20.7615C20.7458 20.9199 20.4243 21.002 20.0977 21H3.89861C3.57238 21.0014 3.25133 20.9188 2.9667 20.7602C2.68206 20.6016 2.44351 20.3724 2.27427 20.0949C2.10503 19.8175 2.01085 19.5011 2.00088 19.1767C1.99092 18.8523 2.06551 18.5308 2.21741 18.2436Z" stroke="#0E0B20" stroke-width="2" stroke-miterlimit="10" stroke-linecap="square"/>
<path d="M12 8V13.7134" stroke="#0E0B20" stroke-width="2" stroke-miterlimit="10" stroke-linecap="round"/>
<path d="M12 18C12.5523 18 13 17.5523 13 17C13 16.4477 12.5523 16 12 16C11.4477 16 11 16.4477 11 17C11 17.5523 11.4477 18 12 18Z" fill="#0E0B20"/>
</svg>
