<svg width="20" height="20" viewBox="0 0 20 20" fill="none" xmlns="http://www.w3.org/2000/svg">
<path fill-rule="evenodd" clip-rule="evenodd" d="M10 2.1842L9.42427 2.73085L9.4206 2.7344L9.40777 2.74666C9.39694 2.7571 9.38152 2.77205 9.36177 2.79134C9.32227 2.82991 9.26552 2.88588 9.19394 2.9579C9.05094 3.10187 8.84852 3.31031 8.60652 3.57244C8.12334 4.09573 7.47779 4.83781 6.83036 5.71195C5.56916 7.41477 4.16669 9.79371 4.16669 12.0875C4.16669 15.1442 6.84885 17.5 10 17.5C13.1512 17.5 15.8334 15.1442 15.8334 12.0875C15.8334 9.79371 14.4309 7.41477 13.1697 5.71195C12.5223 4.83781 11.8767 4.09573 11.3935 3.57244C11.1515 3.31031 10.9491 3.10187 10.8061 2.9579C10.7345 2.88588 10.6778 2.82991 10.6383 2.79134C10.6185 2.77205 10.6031 2.7571 10.5923 2.74666L10.5794 2.7344L10.5758 2.73085L10 2.1842ZM9.83102 4.70306C9.8901 4.6391 9.94652 4.57865 10 4.52191C10.0535 4.57865 10.1099 4.6391 10.169 4.70306C10.6234 5.19513 11.2278 5.89034 11.8304 6.70391C13.0692 8.37655 14.1667 10.3746 14.1667 12.0875C14.1667 14.0889 12.3717 15.8334 10 15.8334C7.62835 15.8334 5.83335 14.0889 5.83335 12.0875C5.83335 10.3746 6.93088 8.37655 8.16968 6.70391C8.77227 5.89034 9.37669 5.19513 9.83102 4.70306Z" fill="#0E0B20"/>
<path d="M10.7796 7.82837L8.03219 11.3185C7.95527 11.4162 8.02488 11.5596 8.14925 11.5596H9.74425L9.22039 14.1716L11.9678 10.6815C12.0447 10.5838 11.9751 10.4403 11.8507 10.4403H10.2557L10.7796 7.82837Z" fill="#0E0B20"/>
</svg>
