<svg id="body-copy" width="100" height="100" viewBox="0 0 100 100" fill="none" xmlns="http://www.w3.org/2000/svg">
<path d="M73.039 61.9319H26.9659C20.3805 61.9319 15 56.543 15 49.9659C15 43.3805 20.3888 38 26.9659 38H73.039C79.6244 38 85.0049 43.3889 85.0049 49.9659C85.0049 56.543 79.6161 61.9319 73.039 61.9319Z" stroke="#161919" stroke-width="1.5" stroke-miterlimit="10"/>
<path d="M33.133 52.3256C34.4362 52.3256 35.4927 51.2692 35.4927 49.9659C35.4927 48.6627 34.4362 47.6062 33.133 47.6062C31.8298 47.6062 30.7733 48.6627 30.7733 49.9659C30.7733 51.2692 31.8298 52.3256 33.133 52.3256Z" fill="#161919" stroke="#161919" stroke-width="1.5" stroke-miterlimit="10"/>
<path d="M50.0025 52.3256C51.3058 52.3256 52.3622 51.2692 52.3622 49.9659C52.3622 48.6627 51.3058 47.6062 50.0025 47.6062C48.6993 47.6062 47.6428 48.6627 47.6428 49.9659C47.6428 51.2692 48.6993 52.3256 50.0025 52.3256Z" fill="#161919" stroke="#161919" stroke-width="1.5" stroke-miterlimit="10"/>
<path d="M66.8636 52.3256C68.1669 52.3256 69.2233 51.2692 69.2233 49.9659C69.2233 48.6627 68.1669 47.6062 66.8636 47.6062C65.5604 47.6062 64.5039 48.6627 64.5039 49.9659C64.5039 51.2692 65.5604 52.3256 66.8636 52.3256Z" fill="#161919" stroke="#161919" stroke-width="1.5" stroke-miterlimit="10"/>
<path d="M65.3322 48.2003L90.4941 57.4718L79.9424 62.8105L74.3443 73.6217L65.3322 48.2003Z" fill="#FFD45A"/>
</svg>
