<svg width="16" height="16" viewBox="0 0 16 16" fill="none" xmlns="http://www.w3.org/2000/svg">
<path d="M2.16666 6.09091H13.8333" stroke="#202020" stroke-width="1.4" stroke-linecap="round" stroke-linejoin="round"/>
<path d="M2.40039 2.97293H13.5996C13.7543 2.97293 13.9242 3.0421 14.0645 3.20145C14.2071 3.36365 14.2998 3.60056 14.2998 3.86356V13.4095C14.2997 13.6724 14.2071 13.9094 14.0645 14.0716C13.9242 14.2309 13.7543 14.3001 13.5996 14.3001H2.40039C2.24572 14.3001 2.07577 14.2309 1.93555 14.0716C1.79286 13.9094 1.70028 13.6724 1.7002 13.4095V3.86356C1.70022 3.60056 1.79289 3.36365 1.93555 3.20145C2.07577 3.0421 2.24572 2.97293 2.40039 2.97293Z" stroke="#202020" stroke-width="1.4" stroke-linecap="round" stroke-linejoin="round"/>
<path d="M4.5 1V2.27273" stroke="#202020" stroke-width="1.4" stroke-linecap="round" stroke-linejoin="round"/>
<path d="M11.5 1V2.27273" stroke="#202020" stroke-width="1.4" stroke-linecap="round" stroke-linejoin="round"/>
<rect x="2.16666" y="3.33334" width="11.6667" height="2.33333" fill="#202020"/>
</svg>
