<svg width="20" height="20" viewBox="0 0 20 20" fill="none" xmlns="http://www.w3.org/2000/svg">
<g clip-path="url(#clip0_1_730)">
<path fill-rule="evenodd" clip-rule="evenodd" d="M17.6668 -0.16658H0.666824V20.1668H8.25403C8.04601 20.0069 7.95081 19.7329 8.02463 19.4729L8.90603 16.3867C9.24272 15.2102 10.2203 14.3067 11.3981 14.087C11.695 14.0317 11.9936 13.9845 12.2934 13.9453C11.4982 13.2142 10.9998 12.1653 10.9998 10.9999C10.9998 8.79078 12.7907 6.99992 14.9998 6.99992C16.0144 6.99992 16.9408 7.37766 17.6459 8.00017H17.6668V-0.16658ZM4.83365 4.83334H11.8337V6.83334H4.83365V4.83334ZM4.83365 9.00001H8.83365V11H4.83365V9.00001ZM7.23365 13.1667H4.83365V15.1667H7.23365V13.1667Z" fill="#0E0B20"/>
<path d="M15 14C16.3807 14 17.5 12.8807 17.5 11.5C17.5 10.1193 16.3807 9 15 9C13.6193 9 12.5 10.1193 12.5 11.5C12.5 12.8807 13.6193 14 15 14Z" fill="#0E0B20"/>
<path d="M19.303 16.99C19.04 16.068 18.295 15.388 17.358 15.216C15.8 14.929 14.177 14.93 12.614 15.221C11.708 15.39 10.956 16.085 10.697 16.99L10.019 19.364C9.952 19.6 10.066 19.851 10.29 19.955C11.755 20.636 13.384 20.996 15 20.996C16.616 20.996 18.245 20.636 19.71 19.955C19.933 19.851 20.048 19.601 19.981 19.364L19.303 16.991V16.99Z" fill="#0E0B20"/>
</g>
<defs>
<clipPath id="clip0_1_730">
<rect width="20" height="20" fill="white"/>
</clipPath>
</defs>
</svg>
