<svg width="20" height="20" viewBox="0 0 20 20" fill="none" xmlns="http://www.w3.org/2000/svg">
<path d="M5 20C5.92047 20 6.66667 19.2538 6.66667 18.3333C6.66667 17.4129 5.92047 16.6667 5 16.6667C4.07953 16.6667 3.33333 17.4129 3.33333 18.3333C3.33333 19.2538 4.07953 20 5 20Z" fill="#0E0B20"/>
<path d="M16.6667 20C17.5871 20 18.3333 19.2538 18.3333 18.3333C18.3333 17.4129 17.5871 16.6667 16.6667 16.6667C15.7462 16.6667 15 17.4129 15 18.3333C15 19.2538 15.7462 20 16.6667 20Z" fill="#0E0B20"/>
<path d="M5 13.3333C4.54 13.3333 4.16667 12.96 4.16667 12.5V11.6667H15.8333C16.2158 11.6667 16.5492 11.4067 16.6417 11.0358L18.3083 4.36917C18.42 3.9225 18.1492 3.47 17.7025 3.35833C17.6367 3.34167 17.5683 3.33333 17.5 3.33333H4.16667V0.833333C4.16667 0.373333 3.79333 0 3.33333 0H0.833333C0.373333 0 0 0.373333 0 0.833333C0 1.29333 0.373333 1.66667 0.833333 1.66667H2.5V12.5C2.5 13.8808 3.61917 15 5 15H18.3333C18.7933 15 19.1667 14.6267 19.1667 14.1667C19.1667 13.7067 18.7933 13.3333 18.3333 13.3333H5Z" fill="#0E0B20"/>
</svg>
