<svg width="20" height="20" viewBox="0 0 20 20" fill="none" xmlns="http://www.w3.org/2000/svg">
<g clip-path="url(#clip0_262_6082)">
<path d="M0.833344 -0.166668H-0.166656V1.83333H0.833344V-0.166668ZM3.33334 0.833332H4.33334V-0.166668H3.33334V0.833332ZM3.33334 12.5H2.33334H3.33334ZM18.3333 15.1667H19.3333V13.1667H18.3333V15.1667ZM17.5 4.16667L18.4702 4.4092L18.7808 3.16667H17.5V4.16667ZM15.8333 10.8333V11.8333H16.6141L16.8035 11.0759L15.8333 10.8333ZM5.00001 20.1667C6.01253 20.1667 6.83334 19.3459 6.83334 18.3333H4.83334C4.83334 18.2413 4.90796 18.1667 5.00001 18.1667V20.1667ZM6.83334 18.3333C6.83334 17.3208 6.01253 16.5 5.00001 16.5V18.5C4.90796 18.5 4.83334 18.4254 4.83334 18.3333H6.83334ZM5.00001 16.5C3.98749 16.5 3.16668 17.3208 3.16668 18.3333H5.16668C5.16668 18.4254 5.09206 18.5 5.00001 18.5V16.5ZM3.16668 18.3333C3.16668 19.3459 3.98749 20.1667 5.00001 20.1667V18.1667C5.09206 18.1667 5.16668 18.2413 5.16668 18.3333H3.16668ZM16.6667 20.1667C17.6792 20.1667 18.5 19.3459 18.5 18.3333H16.5C16.5 18.2413 16.5746 18.1667 16.6667 18.1667V20.1667ZM18.5 18.3333C18.5 17.3208 17.6792 16.5 16.6667 16.5V18.5C16.5746 18.5 16.5 18.4254 16.5 18.3333H18.5ZM16.6667 16.5C15.6542 16.5 14.8333 17.3208 14.8333 18.3333H16.8333C16.8333 18.4254 16.7587 18.5 16.6667 18.5V16.5ZM14.8333 18.3333C14.8333 19.3459 15.6542 20.1667 16.6667 20.1667V18.1667C16.7587 18.1667 16.8333 18.2413 16.8333 18.3333H14.8333ZM0.833344 1.83333H3.33334V-0.166668H0.833344V1.83333ZM2.33334 0.833332V12.5H4.33334V0.833332H2.33334ZM2.33334 12.5C2.33334 13.2072 2.6143 13.8855 3.11439 14.3856L4.52861 12.9714C4.40358 12.8464 4.33334 12.6768 4.33334 12.5L2.33334 12.5ZM3.11439 14.3856C3.61449 14.8857 4.29277 15.1667 5.00001 15.1667V13.1667C4.8232 13.1667 4.65363 13.0964 4.52861 12.9714L3.11439 14.3856ZM5.00001 15.1667H18.3333V13.1667H5.00001V15.1667ZM3.33334 5.16667H17.5V3.16667H3.33334V5.16667ZM16.5299 3.92413L14.8632 10.5908L16.8035 11.0759L18.4702 4.4092L16.5299 3.92413ZM15.8333 9.83333H3.33334V11.8333H15.8333V9.83333Z" fill="#0E0B20"/>
</g>
<defs>
<clipPath id="clip0_262_6082">
<rect width="20" height="20" fill="white"/>
</clipPath>
</defs>
</svg>
