<svg width="7" height="12" viewBox="0 0 7 12" fill="none" xmlns="http://www.w3.org/2000/svg">
<path d="M1.7692 0.308964C1.59949 0.134161 1.35572 0.0243086 1.09153 0.00357383C0.82733 -0.0171609 0.564346 0.0529204 0.360426 0.198401C0.156507 0.343881 0.0283575 0.552843 0.00416909 0.779317C-0.0200193 1.00579 0.0617349 1.23123 0.231447 1.40603L4.69974 6L0.231447 10.594C0.147414 10.6805 0.0840916 10.7804 0.0450953 10.8879C0.00609893 10.9955 -0.00780777 11.1085 0.00416909 11.2207C0.016146 11.3328 0.0537722 11.4418 0.114899 11.5415C0.176026 11.6412 0.259456 11.7296 0.360426 11.8016C0.564346 11.9471 0.82733 12.0172 1.09153 11.9964C1.35572 11.9757 1.59949 11.8658 1.7692 11.691L6.76841 6.54853C6.91805 6.39453 7 6.20043 7 6C7 5.79957 6.91805 5.60547 6.76841 5.45147L1.7692 0.308964Z" fill="#0E0B20"/>
</svg>
