<svg width="12" height="7" viewBox="0 0 12 7" fill="none" xmlns="http://www.w3.org/2000/svg">
<path d="M11.8015 0.360526C11.7294 0.259428 11.641 0.175907 11.5412 0.114745C11.4414 0.0535839 11.3323 0.0159826 11.22 0.00409467C11.1078 -0.00779323 10.9946 0.00626581 10.887 0.0454666C10.7794 0.0846673 10.6795 0.14824 10.593 0.232544L5.9999 4.69988L1.40678 0.232544C1.32034 0.14838 1.22053 0.0849009 1.11306 0.0457326C1.00559 0.0065643 0.892557 -0.00752642 0.780418 0.00426487C0.668279 0.0160562 0.559229 0.0534989 0.459494 0.114455C0.359759 0.17541 0.271293 0.258686 0.199146 0.359526C0.126999 0.460366 0.0725839 0.576796 0.0390084 0.702169C0.00543291 0.827542 -0.00664582 0.959402 0.00346181 1.09022C0.0135694 1.22104 0.0456655 1.34825 0.0979175 1.4646C0.150169 1.58095 0.221554 1.68415 0.307995 1.76832L5.4505 6.76758C5.60464 6.91774 5.79908 7 5.9999 7C6.20071 7 6.39515 6.91774 6.54929 6.76758L11.6918 1.76832C11.8663 1.59856 11.9759 1.35491 11.9965 1.09092C12.017 0.826928 11.9469 0.564213 11.8015 0.360526Z" fill="#0E0B20"/>
</svg>
