<svg width="24" height="24" viewBox="0 0 24 24" fill="none" xmlns="http://www.w3.org/2000/svg">
<path d="M19.5308 4.46919C18.9053 3.8436 17.8941 3.8436 17.2685 4.46919L12 9.73786L6.73146 4.46919C6.10589 3.8436 5.09475 3.8436 4.46918 4.46919C3.84361 5.09477 3.84361 6.10595 4.46918 6.73153L9.73771 12.0002L4.46918 17.2689C3.84361 17.8945 3.84361 18.9056 4.46918 19.5312C4.78116 19.8432 5.19074 20 5.60032 20C6.0099 20 6.41948 19.8432 6.73146 19.5312L12 14.2625L17.2685 19.5312C17.5805 19.8432 17.9901 20 18.3997 20C18.8093 20 19.2188 19.8432 19.5308 19.5312C20.1564 18.9056 20.1564 17.8945 19.5308 17.2689L14.2623 12.0002L19.5308 6.73153C20.1564 6.10595 20.1564 5.09477 19.5308 4.46919Z" fill="#0E0B20"/>
</svg>
