<svg id="community" width="24" height="24" viewBox="0 0 24 24" fill="none" xmlns="http://www.w3.org/2000/svg">
<path d="M5.82944 13.7501L1.50006 17.2501V3.25006C1.50006 3.018 1.59225 2.79544 1.75634 2.63134C1.92044 2.46725 2.143 2.37506 2.37506 2.37506H16.3751C16.6071 2.37506 16.8297 2.46725 16.9938 2.63134C17.1579 2.79544 17.2501 3.018 17.2501 3.25006V12.8751C17.2501 13.1071 17.1579 13.3297 16.9938 13.4938C16.8297 13.6579 16.6071 13.7501 16.3751 13.7501H5.82944Z" stroke="#161919" stroke-linecap="round" stroke-linejoin="round"/>
<path d="M6.75006 13.7501V18.1251C6.75006 18.3571 6.84225 18.5797 7.00634 18.7438C7.17044 18.9079 7.393 19.0001 7.62506 19.0001H18.1707L22.5001 22.5001V8.50006C22.5001 8.268 22.4079 8.04544 22.2438 7.88134C22.0797 7.71725 21.8571 7.62506 21.6251 7.62506H17.2501" stroke="#161919" stroke-linecap="round" stroke-linejoin="round"/>
</svg>
