<svg id="comment" width="22" height="22" viewBox="0 0 22 22" fill="none" xmlns="http://www.w3.org/2000/svg">
<path d="M3.90404 15.2108C2.87903 13.4829 2.52006 11.4402 2.89454 9.46634C3.26902 7.49249 4.35119 5.72324 5.93784 4.4908C7.52448 3.25837 9.50646 2.64754 11.5116 2.77302C13.5167 2.8985 15.4071 3.75165 16.8277 5.17226C18.2484 6.59288 19.1015 8.48325 19.227 10.4884C19.3525 12.4935 18.7417 14.4755 17.5092 16.0622C16.2768 17.6488 14.5076 18.731 12.5337 19.1055C10.5599 19.48 8.5172 19.121 6.78928 18.096L6.7893 18.0959L3.93991 18.91C3.82202 18.9437 3.69727 18.9453 3.57858 18.9145C3.45989 18.8838 3.35159 18.8218 3.26489 18.7351C3.1782 18.6484 3.11626 18.5401 3.08551 18.4214C3.05476 18.3028 3.0563 18.178 3.08998 18.0601L3.9041 15.2107L3.90404 15.2108Z" stroke="#161919" stroke-linecap="round" stroke-linejoin="round"/>
</svg>
