<svg width="24" height="24" viewBox="0 0 24 24" fill="none" xmlns="http://www.w3.org/2000/svg">
<path d="M7 14.9583V18.1765C7 18.3793 7.08194 18.5738 7.22781 18.7172C7.37367 18.8606 7.5715 18.9412 7.77778 18.9412H17.1517L21 22V9.76471C21 9.56189 20.9181 9.36739 20.7722 9.22398C20.6263 9.08057 20.4285 9 20.2222 9H18.0833M7.12322 14.7059L3 18V4.82353C3 4.60512 3.0878 4.39565 3.24408 4.24121C3.40036 4.08676 3.61232 4 3.83333 4H17.1667C17.3877 4 17.5996 4.08676 17.7559 4.24121C17.9122 4.39565 18 4.60512 18 4.82353V13.8824C18 14.1008 17.9122 14.3102 17.7559 14.4647C17.5996 14.6191 17.3877 14.7059 17.1667 14.7059H7.12322Z" stroke="#0E0B20" stroke-width="1.5" stroke-linecap="round" stroke-linejoin="round"/>
</svg>
