<svg width="24" height="24" viewBox="0 0 24 24" fill="none" xmlns="http://www.w3.org/2000/svg">
<path d="M4 19.0001H20M11.2929 5.7072L8.70711 8.29299C8.31658 8.68351 7.68342 8.68351 7.29289 8.29299L5.70711 6.7072C5.07714 6.07724 4 6.5234 4 7.41431V15.0001C4 15.5524 4.44772 16.0001 5 16.0001H19C19.5523 16.0001 20 15.5524 20 15.0001V7.41431C20 6.5234 18.9229 6.07724 18.2929 6.7072L16.7071 8.29299C16.3166 8.68351 15.6834 8.68351 15.2929 8.29299L12.7071 5.7072C12.3166 5.31668 11.6834 5.31668 11.2929 5.7072Z" stroke="#0E0B20" stroke-width="1.5" stroke-linecap="round" stroke-linejoin="round"/>
</svg>
