<svg id="difficulties" width="100" height="100" viewBox="0 0 100 100" fill="none" xmlns="http://www.w3.org/2000/svg">
<path d="M83 59.5151L59.6119 48.8384L56.3794 53.4209L56.9594 59.0968L51.9585 63.109L51.6257 68.1288L74.3293 78.5014L83 59.5151Z" stroke="#161919" stroke-width="1.5" stroke-miterlimit="10"/>
<path d="M43.1356 54.0674L38.4009 50.892L36.9368 45.4728L17.0474 55.0752L26.1269 73.8713L46.6819 63.9456L43.031 60.4849L43.1356 54.0674Z" stroke="#161919" stroke-width="1.5" stroke-miterlimit="10"/>
<path d="M43.4493 24.8893C43.7916 24.0051 44.2765 23.2351 44.8945 22.5885C45.5124 21.942 46.2635 21.4286 47.1382 21.0674C48.0129 20.7061 48.9922 20.5255 50.076 20.5255C51.4736 20.5255 52.643 20.7156 53.5747 21.1054C54.5064 21.4857 55.267 21.9706 55.8375 22.541C56.4079 23.1115 56.8167 23.7294 57.0639 24.3854C57.3111 25.0415 57.4347 25.6594 57.4347 26.2299C57.4347 27.1711 57.3111 27.9507 57.0639 28.5592C56.8167 29.1676 56.5124 29.6905 56.1512 30.1279C55.7899 30.5652 55.3811 30.9265 54.9438 31.2402C54.4969 31.5445 54.0786 31.8487 53.6888 32.153C53.299 32.4572 52.9472 32.809 52.6429 33.1988C52.3387 33.5886 52.1486 34.083 52.063 34.6724V35.7943H48.0699V34.4632C48.1269 33.6171 48.2886 32.904 48.5548 32.3336C48.821 31.7632 49.1347 31.2783 49.4865 30.8695C49.8383 30.4702 50.2186 30.1184 50.6084 29.8237C50.9982 29.5289 51.369 29.2342 51.7017 28.9395C52.0345 28.6447 52.3102 28.3215 52.5099 27.9602C52.719 27.6084 52.8141 27.1616 52.7951 26.6292C52.7951 25.726 52.5764 25.051 52.1296 24.6231C51.6827 24.1953 51.0742 23.9766 50.2851 23.9766C49.7527 23.9766 49.2964 24.0812 48.9161 24.2904C48.5358 24.4995 48.2125 24.7752 47.9653 25.1175C47.7181 25.4598 47.5375 25.8686 47.4234 26.3249C47.3093 26.7908 47.2428 27.2852 47.2428 27.8176H42.8979C42.9264 26.7528 43.1071 25.7735 43.4493 24.8893ZM52.3007 37.5627V42.1167H47.6611V37.5627H52.3007Z" fill="#FFD45A"/>
</svg>
