<svg width="16" height="16" viewBox="0 0 16 16" fill="none" xmlns="http://www.w3.org/2000/svg">
<g clip-path="url(#clip0_534_6278)">
<path d="M15.5001 8.00651e-07H10.5001C10.4011 -0.000176365 10.3042 0.029052 10.2218 0.0839806C10.1394 0.138909 10.0752 0.217064 10.0373 0.308538C9.99938 0.400011 9.98948 0.500683 10.0088 0.597791C10.0282 0.6949 10.076 0.784071 10.1461 0.854001L11.9391 2.646L7.29308 7.293C7.19757 7.38525 7.12139 7.49559 7.06898 7.6176C7.01657 7.7396 6.98898 7.87082 6.98783 8.0036C6.98668 8.13638 7.01198 8.26806 7.06226 8.39095C7.11254 8.51385 7.18679 8.6255 7.28069 8.7194C7.37458 8.81329 7.48623 8.88754 7.60913 8.93782C7.73202 8.9881 7.8637 9.01341 7.99648 9.01225C8.12926 9.0111 8.26048 8.98351 8.38249 8.9311C8.50449 8.87869 8.61483 8.80251 8.70708 8.707L13.3541 4.061L15.1461 5.854C15.1926 5.9004 15.2478 5.93718 15.3086 5.96223C15.3693 5.98728 15.4344 6.00012 15.5001 6C15.5656 5.99967 15.6304 5.98677 15.6911 5.962C15.7825 5.92421 15.8607 5.86013 15.9157 5.77789C15.9707 5.69565 16.0001 5.59894 16.0001 5.5V0.500001C16.0001 0.367393 15.9474 0.240216 15.8536 0.146447C15.7599 0.0526792 15.6327 8.00651e-07 15.5001 8.00651e-07Z" fill="#0E0B20"/>
<path d="M15 8C14.7348 8 14.4804 8.10536 14.2929 8.29289C14.1054 8.48043 14 8.73478 14 9V14H2V2H7C7.26522 2 7.51957 1.89464 7.70711 1.70711C7.89464 1.51957 8 1.26522 8 1C8 0.734784 7.89464 0.48043 7.70711 0.292893C7.51957 0.105357 7.26522 0 7 0L2 0C1.46957 0 0.960859 0.210714 0.585786 0.585786C0.210714 0.960859 0 1.46957 0 2L0 14C0 14.5304 0.210714 15.0391 0.585786 15.4142C0.960859 15.7893 1.46957 16 2 16H14C14.5304 16 15.0391 15.7893 15.4142 15.4142C15.7893 15.0391 16 14.5304 16 14V9C16 8.73478 15.8946 8.48043 15.7071 8.29289C15.5196 8.10536 15.2652 8 15 8Z" fill="#0E0B20"/>
</g>
<defs>
<clipPath id="clip0_534_6278">
<rect width="16" height="16" fill="white"/>
</clipPath>
</defs>
</svg>
