<svg width="24" height="24" viewBox="0 0 24 24" fill="none" xmlns="http://www.w3.org/2000/svg">
<path d="M9.76379 5.29519C10.4662 5.10724 11.2121 5 11.9997 5C15.7571 5 18.5637 7.4404 20.2324 9.43934C21.4845 10.9394 21.4844 13.0609 20.2322 14.5609C20.0403 14.7907 19.8334 15.0264 19.6118 15.2635M12.4998 9.04148C13.756 9.25224 14.7475 10.2437 14.9583 11.5M2.99976 3L20.9998 21M11.4998 14.9585C10.4156 14.7766 9.5286 14.0132 9.17047 13M4.3489 8.77822C4.14189 9.00124 3.94797 9.22274 3.76737 9.43907C2.51518 10.9391 2.51498 13.0606 3.76715 14.5607C5.4358 16.5596 8.24239 19 11.9998 19C12.8019 19 13.5606 18.8888 14.2742 18.6944" stroke="#0E0B20" stroke-width="1.5" stroke-linecap="round" stroke-linejoin="round"/>
</svg>
