<svg width="24" height="24" viewBox="0 0 24 24" fill="none" xmlns="http://www.w3.org/2000/svg">
<path d="M6.50008 6.99991C7.96143 5.53856 9.59363 4.4189 10.6976 3.74078C11.5022 3.24656 12.498 3.24656 13.3026 3.74078C14.4065 4.4189 16.0387 5.53856 17.5001 6.99991C20.6685 10.1683 20.5001 11.9999 20.5001 14.9999C20.5001 16.4097 20.3897 17.5987 20.2726 18.4631C20.1494 19.3725 19.3563 19.9999 18.4385 19.9999H5.56164C4.64391 19.9999 3.85074 19.3725 3.72757 18.4631C3.61051 17.5987 3.50009 16.4097 3.50009 14.9999C3.50009 11.9999 3.33169 10.1683 6.50008 6.99991Z" stroke="#0E0B20" stroke-width="1.5" stroke-linecap="round" stroke-linejoin="round"/>
<path d="M11.6802 10.84L11.449 10.604C11.0701 10.2172 10.5562 9.99991 10.0204 9.99991C8.88901 9.99991 8.00012 10.8749 8.00012 12.4998C8.00012 15.2499 12.0001 16.9999 12.0001 16.9999C12.0001 16.9999 16.0001 15.2499 16.0001 12.4998C16.0001 10.8749 15.0956 9.99991 13.9798 9.99991C13.444 9.99991 12.9301 10.2172 12.5512 10.604L12.3201 10.84C12.1453 11.0184 11.855 11.0184 11.6802 10.84Z" stroke="#0E0B20" stroke-width="1.5" stroke-linecap="round" stroke-linejoin="round"/>
</svg>
