<svg width="16" height="16" viewBox="0 0 16 16" fill="none" xmlns="http://www.w3.org/2000/svg">
<path d="M2.66667 3.33333L6.66667 3.33333M6.66667 3.33333C6.66667 4.06971 7.26362 4.66667 8 4.66667C8.73638 4.66667 9.33333 4.06971 9.33333 3.33333M6.66667 3.33333C6.66667 2.59695 7.26362 2 8 2C8.73638 2 9.33333 2.59695 9.33333 3.33333M9.33333 3.33333L13.3333 3.33333M2.66667 8L10.6667 8M10.6667 8C10.6667 8.73638 11.2636 9.33333 12 9.33333C12.7364 9.33333 13.3333 8.73638 13.3333 8C13.3333 7.26362 12.7364 6.66667 12 6.66667C11.2636 6.66667 10.6667 7.26362 10.6667 8ZM5.33333 12.6667L13.3333 12.6667M5.33333 12.6667C5.33333 11.9303 4.73638 11.3333 4 11.3333C3.26362 11.3333 2.66667 11.9303 2.66667 12.6667C2.66667 13.403 3.26362 14 4 14C4.73638 14 5.33333 13.403 5.33333 12.6667Z" stroke="#0E0B20" stroke-width="1.5" stroke-linecap="round"/>
</svg>
