<svg width="41" height="40" viewBox="0 0 41 40" fill="none" xmlns="http://www.w3.org/2000/svg">
  <path d="M27.04 4.92125L22.9525 4.3275L21.125 0.625L19.2975 4.3275L15.21 4.92125L18.1675 7.805L17.47 11.875L21.125 9.95375L24.78 11.875L24.0825 7.805L27.04 4.92125Z" fill="#0E0B20"/>
  <path d="M14.54 31.1713L10.4525 30.5775L8.62499 26.875L6.79749 30.5775L2.70999 31.1713L5.66749 34.055L4.96999 38.125L8.62499 36.2037L12.28 38.125L11.5825 34.055L14.54 31.1713Z" fill="#0E0B20"/>
  <path d="M39.54 31.1713L35.4525 30.5775L33.625 26.875L31.7975 30.5775L27.71 31.1713L30.6675 34.055L29.97 38.125L33.625 36.2037L37.28 38.125L36.5825 34.055L39.54 31.1713Z" fill="#0E0B20"/>
  <path d="M12.375 20.625C12.375 20.625 21.125 24.7913 21.125 39.375" stroke="#0E0B20" stroke-width="1.4" stroke-miterlimit="10" stroke-linecap="square"/>
  <path d="M21.125 14.375V23.125" stroke="#0E0B20" stroke-width="1.4" stroke-miterlimit="10" stroke-linecap="square"/>
  <path d="M29.875 20.625C29.875 20.625 25.6487 22.45 23.0712 28.4575" stroke="#0E0B20" stroke-width="1.4" stroke-miterlimit="10" stroke-linecap="square"/>
  <path d="M6.125 19.375C7.50571 19.375 8.625 18.2557 8.625 16.875C8.625 15.4943 7.50571 14.375 6.125 14.375C4.74429 14.375 3.625 15.4943 3.625 16.875C3.625 18.2557 4.74429 19.375 6.125 19.375Z" stroke="#0E0B20" stroke-width="1.4" stroke-miterlimit="10" stroke-linecap="square"/>
  <path d="M36.125 19.375C37.5057 19.375 38.625 18.2557 38.625 16.875C38.625 15.4943 37.5057 14.375 36.125 14.375C34.7443 14.375 33.625 15.4943 33.625 16.875C33.625 18.2557 34.7443 19.375 36.125 19.375Z" stroke="#0E0B20" stroke-width="1.4" stroke-miterlimit="10" stroke-linecap="square"/>
</svg>
