<svg width="20" height="20" viewBox="0 0 20 20" fill="none" xmlns="http://www.w3.org/2000/svg">
<path d="M12.0461 8.29333C12.0461 8.29333 12.7927 3.90507 9.7474 2C9.70198 2.75399 9.498 3.48992 9.14877 4.1597C8.79955 4.82948 8.31294 5.41804 7.72073 5.88693C6.4194 7.0304 3.9746 9.5968 4.0002 12.3403C3.9913 13.5117 4.30985 14.6622 4.91993 15.6623C5.53 16.6623 6.40734 17.472 7.453 18C7.52706 16.8158 8.03432 15.7003 8.87807 14.8661C9.62012 14.1267 10.0833 13.1532 10.189 12.1109C12.2455 13.0485 13.1949 16.4683 13.1949 17.9413V17.9541C14.1803 17.501 15.0213 16.7843 15.625 15.8832C16.2287 14.9821 16.5715 13.9317 16.6157 12.848C16.6821 10.624 15.9345 8.4522 14.5133 6.74027" stroke="#0E0B20" stroke-width="1.6" stroke-linecap="round" stroke-linejoin="round"/>
</svg>
