<svg width="20" height="24" viewBox="0 0 20 24" fill="none" xmlns="http://www.w3.org/2000/svg">
<path d="M12.424 9.6C12.424 9.6 13.474 3.429 9.19147 0.75C9.12761 1.8103 8.84075 2.84519 8.34965 3.78707C7.85855 4.72895 7.17426 5.55662 6.34147 6.216C4.51147 7.824 1.07347 11.433 1.10947 15.291C1.09696 16.9383 1.54492 18.5563 2.40284 19.9625C3.26076 21.3688 4.49451 22.5074 5.96497 23.25C6.06912 21.5847 6.78245 20.0161 7.96897 18.843C9.01249 17.8032 9.66387 16.4341 9.81247 14.9685C12.7045 16.287 14.0395 21.096 14.0395 23.1675V23.1855C15.4252 22.5483 16.6079 21.5405 17.4568 20.2733C18.3057 19.0061 18.7879 17.529 18.85 16.005C18.9434 12.8775 17.8921 9.8234 15.8935 7.416" stroke="#0E0B20" stroke-linecap="round" stroke-linejoin="round"/>
</svg>
