<svg width="20" height="20" viewBox="0 0 20 20" fill="none" xmlns="http://www.w3.org/2000/svg">
<g clip-path="url(#clip0_135_5884)">
<path d="M5.63334 5.05418C5.63334 4.09459 4.85544 3.31668 3.89584 3.31668C2.93625 3.31668 2.15834 4.09459 2.15834 5.05418C2.15834 6.01378 2.93625 6.79168 3.89584 6.79168C4.85544 6.79168 5.63334 6.01378 5.63334 5.05418Z" stroke="#0E0B20" stroke-width="1.5" stroke-linecap="round" stroke-linejoin="round"/>
<path d="M4.475 17.2167H2.15833V13.7417H1V10.2667C1 9.95946 1.12204 9.66484 1.33927 9.44761C1.5565 9.23038 1.85112 9.10834 2.15833 9.10834H3.31667" stroke="#0E0B20" stroke-width="1.5" stroke-linecap="round" stroke-linejoin="round"/>
<path d="M13.7417 5.05416C13.7417 6.01375 14.5196 6.79166 15.4792 6.79166C16.4388 6.79166 17.2167 6.01375 17.2167 5.05416C17.2167 4.09456 16.4388 3.31666 15.4792 3.31666C14.5196 3.31666 13.7417 4.09456 13.7417 5.05416Z" stroke="#0E0B20" stroke-width="1.5" stroke-linecap="round" stroke-linejoin="round"/>
<path d="M14.9 17.2167H17.2167V13.7417H18.375V10.2667C18.375 9.95946 18.253 9.66484 18.0357 9.44761C17.8185 9.23038 17.5239 9.10834 17.2167 9.10834H16.0583" stroke="#0E0B20" stroke-width="1.5" stroke-linecap="round" stroke-linejoin="round"/>
<path d="M12.0042 3.31667C12.0042 2.03721 10.967 1 9.6875 1C8.40804 1 7.37083 2.03721 7.37083 3.31667C7.37083 4.59613 8.40804 5.63333 9.6875 5.63333C10.967 5.63333 12.0042 4.59613 12.0042 3.31667Z" stroke="#0E0B20" stroke-width="1.5" stroke-linecap="round" stroke-linejoin="round"/>
<path d="M12.5833 18.375H6.79166V13.7417H5.63333V10.2667C5.63333 9.65226 5.87741 9.06301 6.31187 8.62855C6.74633 8.19409 7.33558 7.95001 7.95 7.95001H11.425C12.0394 7.95001 12.6287 8.19409 13.0631 8.62855C13.4976 9.06301 13.7417 9.65226 13.7417 10.2667V13.7417H12.5833V18.375Z" stroke="#0E0B20" stroke-width="1.5" stroke-linecap="round" stroke-linejoin="round"/>
</g>
<defs>
<clipPath id="clip0_135_5884">
<rect width="20" height="20" fill="white"/>
</clipPath>
</defs>
</svg>
