<svg width="20" height="20" viewBox="0 0 20 20" fill="none" xmlns="http://www.w3.org/2000/svg">
<g clip-path="url(#clip0_135_5780)">
<path d="M10 6.25C8.22875 6.25 6.875 4.89625 6.875 3.125C6.875 1.35375 8.22875 0 10 0C11.7713 0 13.125 1.35375 13.125 3.125C13.125 4.89625 11.7713 6.25 10 6.25Z" fill="#212121"/>
<path d="M3.125 6.25C2.09375 6.25 1.25 5.40625 1.25 4.375C1.25 3.34375 2.09375 2.5 3.125 2.5C4.15625 2.5 5 3.34375 5 4.375C5 5.40625 4.15625 6.25 3.125 6.25Z" fill="#212121"/>
<path d="M3.69374 15.9625C3.21499 15.3775 3.02624 14.6225 3.17249 13.885L4.02124 9.64375C4.15874 8.955 4.44874 8.33375 4.83249 7.78375C4.55249 7.6175 4.24249 7.49875 3.89624 7.49875H2.35374C1.40999 7.49875 0.609988 8.205 0.493738 9.14125L0.00498786 13.0475C-0.0175121 13.225 0.0374879 13.4037 0.156238 13.5387C0.274988 13.6725 0.444988 13.75 0.624988 13.75H1.29999L1.56499 16.9275C1.59124 17.2512 1.86249 17.5 2.18749 17.5H4.06249C4.38749 17.5 4.65874 17.2512 4.68499 16.9275L4.70499 16.6912C4.31749 16.5375 3.96624 16.2937 3.69374 15.9625Z" fill="#212121"/>
<path d="M16.875 6.25C17.9062 6.25 18.75 5.40625 18.75 4.375C18.75 3.34375 17.9062 2.5 16.875 2.5C15.8438 2.5 15 3.34375 15 4.375C15 5.40625 15.8438 6.25 16.875 6.25Z" fill="#212121"/>
<path d="M16.3062 15.9625C16.785 15.3775 16.9737 14.6225 16.8275 13.885L15.9787 9.64375C15.8412 8.955 15.5512 8.33375 15.1675 7.78375C15.4475 7.6175 15.7575 7.49875 16.1037 7.49875H17.6462C18.59 7.49875 19.39 8.205 19.5062 9.14125L19.995 13.0462C20.0175 13.2237 19.9625 13.4025 19.8437 13.5375C19.725 13.6712 19.555 13.7487 19.375 13.7487H18.7L18.435 16.9262C18.4087 17.25 18.1375 17.4987 17.8125 17.4987H15.9375C15.6125 17.4987 15.3412 17.25 15.315 16.9262L15.295 16.69C15.6825 16.5362 16.0337 16.2937 16.3062 15.9625Z" fill="#212121"/>
<path d="M14.14 10.0125C13.8488 8.55625 12.56 7.5 11.075 7.5H8.92376C7.43876 7.5 6.15001 8.55625 5.85876 10.0125L5.01126 14.2525C4.97501 14.4363 5.02251 14.6263 5.14126 14.7713C5.26001 14.9163 5.43751 15 5.62501 15H6.94876L7.50501 19.4525C7.54376 19.765 7.81001 20 8.12501 20H11.875C12.19 20 12.4563 19.765 12.495 19.4525L13.0513 15H14.375C14.5625 15 14.74 14.9163 14.8588 14.7713C14.9775 14.6263 15.025 14.4363 14.9888 14.2525L14.14 10.0125Z" fill="#212121"/>
</g>
<defs>
<clipPath id="clip0_135_5780">
<rect width="20" height="20" fill="white"/>
</clipPath>
</defs>
</svg>
