<svg width="20" height="20" viewBox="0 0 20 20" fill="none" xmlns="http://www.w3.org/2000/svg">
<path d="M5.83993 5.23312C5.32423 5.93041 5.00001 6.90312 5.00001 7.93103C5.00001 8.30677 5.06418 8.7245 5.15073 9.11125H3.45045C3.38028 8.7255 3.33334 8.32047 3.33334 7.93103C3.33334 6.57337 3.75652 5.24724 4.49994 4.24207C5.24592 3.23342 6.35894 2.5 7.70834 2.5C8.22655 2.5 8.70876 2.68298 9.10643 2.89929C9.51076 3.11919 9.88484 3.40497 10.2022 3.68257C10.4366 3.88767 10.6503 4.09748 10.8333 4.28902C11.0164 4.09748 11.2301 3.88767 11.4645 3.68257C11.7818 3.40497 12.1559 3.11919 12.5603 2.89929C12.9579 2.68298 13.4401 2.5 13.9583 2.5C15.3078 2.5 16.4208 3.23342 17.1668 4.24207C17.9102 5.24724 18.3333 6.57337 18.3333 7.93103C18.3333 9.36475 17.9483 10.4792 17.6832 10.9693C16.7948 13.0197 15.158 14.6262 13.7963 15.7012C13.1036 16.2482 12.4641 16.6715 11.9965 16.9588C11.7623 17.1027 11.5703 17.2132 11.435 17.2886C11.3673 17.3262 11.3138 17.3553 11.2762 17.3753C11.2573 17.3853 11.2425 17.3932 11.2319 17.3987L11.2191 17.4053L11.2152 17.4074L11.2138 17.4081L10.8333 17.6027L10.4534 17.4083L10.4515 17.4074L10.4476 17.4053L10.4348 17.3987C10.4242 17.3932 10.4093 17.3853 10.3905 17.3753C10.3528 17.3553 10.2993 17.3262 10.2317 17.2886C10.0963 17.2132 9.90434 17.1027 9.67018 16.9588C9.20259 16.6715 8.56309 16.2482 7.87036 15.7012C6.84799 14.8941 5.67049 13.7872 4.77114 12.418H6.84556C7.48306 13.1823 8.21124 13.8469 8.90309 14.3932C9.53426 14.8914 10.1181 15.2779 10.5428 15.5389C10.6508 15.6053 10.7483 15.6634 10.8333 15.713C10.9183 15.6634 11.0158 15.6053 11.1238 15.5389C11.5486 15.2779 12.1324 14.8914 12.7636 14.3932C14.0409 13.3847 15.442 11.9727 16.1678 10.2744L16.1868 10.2301L16.2107 10.1882C16.3228 9.99208 16.6667 9.14 16.6667 7.93103C16.6667 6.90312 16.3424 5.93041 15.8268 5.23312C15.3136 4.53931 14.6558 4.16667 13.9583 4.16667C13.8238 4.16667 13.6233 4.21829 13.3566 4.36339C13.0964 4.5049 12.8243 4.70733 12.5619 4.93693C12.0368 5.39643 11.6258 5.89744 11.5181 6.03287C11.1674 6.47385 10.4993 6.47385 10.1486 6.03287C10.0409 5.89744 9.62993 5.39643 9.10476 4.93693C8.84234 4.70733 8.57026 4.5049 8.31008 4.36339C8.04332 4.21829 7.84283 4.16667 7.70834 4.16667C7.01088 4.16667 6.35306 4.53931 5.83993 5.23312Z" fill="#0E0B20"/>
<path d="M3.64097 9.94458H5.38077H6.6115L8.48307 6.875L9.76874 10.0377L10.3873 9.12458H13.3333V10.7647H11.2793L9.39791 13.5417L8.18354 10.5541L7.55515 11.5847H1.66666V9.94458H3.64097Z" fill="#0E0B20"/>
</svg>
