<svg width="22" height="22" viewBox="0 0 22 22" fill="none" xmlns="http://www.w3.org/2000/svg">
<path d="M11 1.90909L11.6332 1.13513L11 0.61703L10.3668 1.13513L11 1.90909ZM5.63636 11.9091V10.9091H3.63636V11.9091H5.63636ZM18.3636 11.9091V10.9091H16.3636V11.9091H18.3636ZM1.63324 10.8649L11.6332 2.68305L10.3668 1.13513L0.366762 9.31695L1.63324 10.8649ZM10.3668 2.68305L20.3668 10.8649L21.6332 9.31695L11.6332 1.13513L10.3668 2.68305ZM3.63636 11.9091V18.2727H5.63636V11.9091H3.63636ZM3.63636 18.2727C3.63636 19.8296 4.89772 21.0909 6.45455 21.0909V19.0909C6.00229 19.0909 5.63636 18.725 5.63636 18.2727H3.63636ZM6.45455 21.0909H15.5455V19.0909H6.45455V21.0909ZM15.5455 21.0909C17.1023 21.0909 18.3636 19.8296 18.3636 18.2727H16.3636C16.3636 18.725 15.9977 19.0909 15.5455 19.0909V21.0909ZM18.3636 18.2727V11.9091H16.3636V18.2727H18.3636Z" fill="#0E0B20"/>
</svg>
