<svg id="hone-box" width="100" height="100" viewBox="0 0 100 100" fill="none" xmlns="http://www.w3.org/2000/svg">
<g clip-path="url(#clip0)">
<path d="M15.1666 58.4167L45.5 76.6667L72.1666 60.1667" stroke="#161919" stroke-width="1.5" stroke-miterlimit="10"/>
<path d="M72.1666 60.1667L41.9166 41.8333L15.1666 58.4167V68.4167L45.5 86.75L72.1666 70.1667V60.1667Z" stroke="#161919" stroke-width="1.5" stroke-miterlimit="10"/>
<path d="M45.5 76.6667V86.75" stroke="#161919" stroke-width="1.5" stroke-miterlimit="10"/>
<path d="M72.1667 60.1667L83 31.25L52.75 12.9167L41.9167 41.8333V47.3333L19.75 61.1667" stroke="#161919" stroke-width="1.5" stroke-miterlimit="10"/>
<path d="M67.6666 62.9167L41.9166 47.3333" stroke="#161919" stroke-width="1.5" stroke-miterlimit="10"/>
<path d="M48.0833 58.4167L34.5 60.0833L47.25 67.6667L48.0833 58.4167Z" fill="#FFD45A"/>
<path d="M82.4999 30.9167L78.3333 33.8333L48.0833 15.5L52.6666 12.6667L82.4999 30.9167Z" fill="#FAFAFA" stroke="#161919" stroke-width="1.5" stroke-miterlimit="10"/>
</g>
<defs>
<clipPath id="clip0">
<rect width="69" height="76" fill="white" transform="translate(15 12)"/>
</clipPath>
</defs>
</svg>
