<svg id="hone" width="128" height="128" viewBox="0 0 128 128" fill="none" xmlns="http://www.w3.org/2000/svg">
<path class="upper" d="M124.876 110.727C124.45 110.727 124.024 110.537 123.74 110.206L71.4795 52.7385C69.5386 50.6083 66.8404 49.4249 63.9529 49.4249C61.0653 49.4249 58.367 50.6556 56.4262 52.7385L4.2132 110.253C3.64516 110.869 2.65107 110.916 2.03569 110.348C1.4203 109.78 1.37297 108.786 1.94101 108.17L54.154 50.6556C56.6629 47.9101 60.2132 46.3006 63.9529 46.3006C67.6925 46.3006 71.2428 47.8627 73.7517 50.6556L126.012 108.17C126.58 108.786 126.533 109.78 125.917 110.348C125.633 110.632 125.255 110.727 124.876 110.727Z" fill="#161919"/>
<path class="middle" d="M124.876 110.821C124.544 110.821 124.213 110.727 123.976 110.537L82.2723 79.9101C71.3374 71.9101 56.6628 71.9101 45.7279 79.9101L3.97644 110.49C3.26638 111.011 2.31964 110.869 1.79893 110.159C1.27822 109.449 1.42023 108.502 2.13029 107.981L43.8344 77.3539C55.8581 68.5491 72.0475 68.5491 84.0711 77.3539L125.775 107.981C126.485 108.502 126.627 109.449 126.107 110.159C125.823 110.585 125.349 110.821 124.876 110.821Z" fill="#161919"/>
<path class="lower" d="M124.876 110.869C124.687 110.869 124.497 110.821 124.355 110.774L94.5327 99.8391C74.8404 92.5965 53.1599 92.5965 33.4203 99.8391L3.59777 110.774C2.79304 111.058 1.89363 110.679 1.60961 109.827C1.32558 109.022 1.70428 108.123 2.55635 107.839L32.3788 96.9042C52.7812 89.4249 75.2191 89.4249 95.6214 96.9042L125.444 107.839C126.249 108.123 126.675 109.022 126.391 109.827C126.107 110.49 125.491 110.869 124.876 110.869Z" fill="#161919"/>
<path d="M128 110.916H0L64 16.9988L128 110.916ZM5.86982 107.792H122.13L64 22.5373L5.86982 107.792Z" fill="#161919"/>
</svg>
