<svg
  width="80"
  height="20"
  viewBox="0 0 80 20"
  fill="none"
  xmlns="http://www.w3.org/2000/svg"
>
  <path
    d="M3.81505 19.5449H0C0.218655 16.9609 0.302313 14.9895 0.302313 9.87962C0.307067 5.1453 0.250977 3.00675 0.00475221 0.399185H3.81505C3.68005 2.04513 3.56883 5.84635 3.56883 8.51192C4.30845 8.54044 6.23546 8.59845 8.36973 8.59845C10.3528 8.59845 12.4595 8.54044 13.1706 8.51192C13.1792 5.40979 13.0632 2.10216 12.8959 0.399185H16.7337C16.5151 2.92514 16.459 5.09221 16.459 9.60037C16.459 15.018 16.5151 16.9658 16.7337 19.5449H12.8911C13.0822 17.8124 13.1659 10.9759 13.1374 10.3555C11.9832 10.2975 9.9507 10.269 8.36402 10.269C6.77735 10.269 4.71629 10.2975 3.56312 10.3555C3.56312 10.3555 3.65154 17.8183 3.8141 19.5449H3.81505Z"
    fill="#0E0B20"
  />
  <path
    d="M40.7069 10.0999C40.7069 12.9916 39.721 15.5755 37.9109 17.308C36.1009 19.069 33.6025 19.9451 30.4206 19.9451C24.0283 19.9451 20.1343 16.1724 20.1343 9.96123C20.1343 3.75008 24.0283 -7.62939e-06 30.393 -7.62939e-06C36.7578 -7.62939e-06 40.7069 3.7432 40.7069 10.0999ZM23.8933 9.98483C23.8933 15.432 26.2795 18.2627 30.4206 18.2627C34.5617 18.2627 36.9479 15.432 36.9479 10.0959C36.9479 4.75987 34.5893 1.67839 30.393 1.67839C26.1968 1.67839 23.8942 4.50423 23.8942 9.97991V9.98483H23.8933Z"
    fill="#0E0B20"
  />
  <path
    d="M61.4135 19.5449C61.2994 15.6493 61.0713 9.63184 61.4753 0.394272H58.6318C58.7668 3.06968 58.8229 5.53762 58.8229 8.99765V14.1607L58.3295 13.6218L56.0821 11.1244L53.6959 8.45883C48.1963 2.41385 47.4633 1.58891 46.4585 0.394272H43.8118C44.1959 4.57207 44.2786 16.0101 43.7975 19.5449H46.6476C46.4014 17.1055 46.3178 14.2423 46.3178 9.13727C46.3178 7.68895 46.3178 6.66933 46.3453 5.47567V5.48059L46.8387 5.96139L48.9787 8.3143C53.2795 12.9572 55.9547 16.0033 58.8182 19.5449H61.4135Z"
    fill="#0E0B20"
  />
  <path
    d="M69.1301 2.229C71.8966 2.2585 77.1823 2.32536 79.2187 2.52103V0.394272C78.3935 0.449333 73.1629 0.481781 69.2908 0.463099L65.3692 0.396238C65.6155 3.0038 65.6668 5.14235 65.6668 9.87667C65.6668 14.9345 65.5518 17.5892 65.3664 19.5419L69.2879 19.4751C73.1591 19.4564 78.5332 19.4898 79.3584 19.5439V17.4172C77.3221 17.6128 71.8928 17.6699 69.1273 17.6994C69.0892 17.0947 68.8088 10.2218 68.9286 10.2228C70.4677 10.2434 76.8762 10.3427 78.1473 10.445V8.37624C76.5092 8.52864 70.4611 8.6132 68.9324 8.6073V8.50799C68.9324 6.56806 69.0132 4.08242 69.1292 2.22704L69.1301 2.229Z"
    fill="#0E0B20"
  />
</svg>