<svg id="hormone-levels" width="100" height="100" viewBox="0 0 100 100" fill="none" xmlns="http://www.w3.org/2000/svg">
<path d="M77.2886 64.6735C69.3215 65.0102 57.0475 43.669 50.6271 36.2919C47.4536 32.645 42.6967 37.1819 34.2829 44.1157C22.9022 53.4962 10.6882 64.6835 3.38782 64.6835" stroke="#161919" stroke-width="1.5" stroke-miterlimit="10"/>
<path d="M89.6894 64.6801C79.8622 64.6801 74.4386 55.4629 64.4047 45.4524C58.601 39.6621 55.9442 35.4051 49.3572 40.4821C39.2933 48.2392 20.1289 64.7001 7.6015 64.6801" fill="#FFD45A"/>
<path d="M0.0377197 64.6801H100" stroke="#161919" stroke-width="1.68093" stroke-miterlimit="10"/>
<path d="M95.9297 64.6801C88.1493 64.6801 83.8524 59.3698 75.9053 51.4426C71.3083 46.8591 69.2049 43.4855 63.9913 47.5058C56.0242 53.6461 40.8466 64.6934 30.9261 64.6801" stroke="#161919" stroke-width="1.5" stroke-miterlimit="10"/>
</svg>
