<svg width="20" height="20" viewBox="0 0 20 20" fill="none" xmlns="http://www.w3.org/2000/svg">
<path fill-rule="evenodd" clip-rule="evenodd" d="M7.66093 8.82312C7.6186 8.94904 7.58039 9.06346 7.54622 9.16737C7.75169 9.16846 7.93066 9.17104 8.08253 9.17762C8.31597 9.18771 8.59757 9.20879 8.84341 9.30437C8.98399 9.35904 9.13907 9.44721 9.27332 9.59221C9.40924 9.73904 9.48399 9.90121 9.52491 10.0445C9.58499 10.255 9.58382 10.4915 9.58316 10.6162L9.58299 10.6482V15.8325C9.58299 16.2928 9.20991 16.6667 8.74966 16.6667C8.28945 16.6667 7.91635 16.2935 7.91635 15.8333V10.8394C7.74845 10.8345 7.53646 10.8336 7.26042 10.8334L7.25742 10.942C7.25104 11.1763 7.2435 11.453 7.22722 11.675C7.20543 11.9722 7.15437 12.5118 6.89594 13.007C6.74961 13.2875 6.51311 13.602 6.14031 13.8384C5.76129 14.0786 5.35366 14.1667 4.98381 14.1667C3.98845 14.1667 3.34999 13.5022 3.07346 13.1615C2.74187 12.753 2.48996 12.2655 2.305 11.8283C1.94614 10.98 1.66666 9.89946 1.66666 9.09096C1.66666 8.31727 1.91817 7.05808 2.42052 5.96566C2.86692 4.99489 3.90689 3.33337 5.8657 3.33337C6.33542 3.33337 6.88122 3.44156 7.36677 3.79947C7.86105 4.16381 8.11482 4.65542 8.23216 5.08997C8.43732 5.84971 8.28489 6.65481 8.16366 7.16537C8.03172 7.72101 7.83523 8.30507 7.67827 8.77162L7.66093 8.82312ZM5.5896 10.9544L5.58953 10.9568C5.56694 11.7929 5.53704 12.5 4.98381 12.5C4.61065 12.5 4.19958 11.9389 3.90893 11.3358C3.56394 10.5811 3.33332 9.63971 3.33332 9.09096C3.33332 8.06822 4.09303 5.00004 5.8657 5.00004C7.18823 5.00004 6.58554 6.7922 6.08901 8.26865C5.92002 8.77121 5.76333 9.23712 5.69903 9.58337C5.61404 10.041 5.60122 10.52 5.5896 10.9544Z" fill="#0E0B20"/>
<path fill-rule="evenodd" clip-rule="evenodd" d="M12.4537 9.16737C12.4196 9.06346 12.3814 8.94904 12.3391 8.82312L12.3217 8.77162C12.1647 8.30508 11.9682 7.72101 11.8363 7.16537C11.7151 6.65481 11.5627 5.84971 11.7678 5.08997C11.8852 4.65542 12.1389 4.16381 12.6332 3.79947C13.1187 3.44156 13.6646 3.33337 14.1343 3.33337C16.0931 3.33337 17.1331 4.99489 17.5795 5.96566C18.0818 7.05808 18.3333 8.31727 18.3333 9.09096C18.3333 9.98437 17.9435 11.1152 17.4983 11.9577C17.2625 12.4039 16.9513 12.8859 16.5616 13.2813C16.2094 13.6385 15.5532 14.1667 14.6407 14.1667C14.0381 14.1667 13.5191 13.8816 13.1872 13.457C12.9199 13.115 12.8284 12.755 12.7907 12.5715C12.7145 12.2007 12.7188 11.784 12.7215 11.5353C12.7224 11.4452 12.7237 11.3577 12.7249 11.2725C12.7272 11.1192 12.7292 10.9734 12.7293 10.8335C12.4581 10.8336 12.2492 10.8345 12.0833 10.8394V15.8333C12.0833 16.2935 11.7102 16.6667 11.25 16.6667C10.7897 16.6667 10.4167 16.2928 10.4167 15.8325V10.6482L10.4166 10.6162C10.4159 10.4915 10.4147 10.255 10.4747 10.0445C10.5157 9.90121 10.5904 9.73904 10.7263 9.59221C10.8606 9.44721 11.0157 9.35904 11.1563 9.30437C11.4021 9.20879 11.6837 9.18771 11.9172 9.17762C12.0691 9.17104 12.2482 9.16846 12.4537 9.16737ZM14.301 9.58337C14.3677 9.94271 14.3899 10.3151 14.3952 10.6688C14.3951 10.8272 14.3939 11.1739 14.3915 11.3189C14.3802 12.0003 14.3718 12.5 14.6407 12.5C15.0677 12.5 15.5034 12.0557 15.8608 11.4683C15.9312 11.3525 15.9986 11.2313 16.0622 11.1068C16.4243 10.3986 16.6667 9.58537 16.6667 9.09096C16.6667 8.06822 15.9069 5.00004 14.1343 5.00004C12.8117 5.00004 13.4144 6.7922 13.911 8.26865C14.08 8.77121 14.2367 9.23712 14.301 9.58337Z" fill="#0E0B20"/>
</svg>
