<svg width="22" height="22" viewBox="0 0 22 22" fill="none" xmlns="http://www.w3.org/2000/svg">
<path d="M1 10.0909H7.36364L9.18182 7.36363L12.8182 12.8182L14.6364 10.0909H21M4.63636 13C6.54277 15.5479 8.67241 17.9209 11 20.0909C13.3276 17.9209 15.4572 15.5479 17.3636 13M20.0909 6.84454C20.0839 5.53363 19.5585 4.27875 18.6293 3.354C17.7001 2.42925 16.4427 1.90979 15.1318 1.90909C14.3143 1.91478 13.5106 2.12009 12.7905 2.50714C12.0704 2.8942 11.4558 3.4513 11 4.13C10.5442 3.4513 9.9296 2.8942 9.20951 2.50714C8.48942 2.12009 7.68568 1.91478 6.86818 1.90909C5.55725 1.90979 4.29987 2.42925 3.37069 3.354C2.44152 4.27875 1.91606 5.53363 1.90909 6.84454" stroke="#0E0B20" stroke-width="2" stroke-miterlimit="10" stroke-linecap="square"/>
</svg>
