<svg width="20" height="20" viewBox="0 0 20 20" fill="none" xmlns="http://www.w3.org/2000/svg">
<path d="M5.36172 8.74776L7.61919 4.9853C7.69762 4.85082 7.81267 4.74142 7.95093 4.66986C8.08918 4.5983 8.24494 4.56753 8.40002 4.58114C8.55475 4.59345 8.70297 4.64873 8.82797 4.74075C8.95297 4.83277 9.04979 4.95787 9.10751 5.10197L11.8166 11.8761L13.4525 9.14942C13.5268 9.02663 13.6316 8.92513 13.7568 8.85475C13.8819 8.78438 14.0231 8.74753 14.1666 8.74776H19.4491C19.7893 7.95682 19.9762 7.10847 19.9999 6.24779C20.0046 5.48042 19.857 4.71975 19.5655 4.00987C19.2741 3.3 18.8446 2.65505 18.302 2.11244C17.7594 1.56982 17.1144 1.14032 16.4045 0.848857C15.6947 0.557393 14.934 0.409759 14.1666 0.414517C12.6013 0.425272 11.1036 1.05429 10 2.1645C8.89641 1.05429 7.39874 0.425272 5.83338 0.414517C5.06602 0.409759 4.30534 0.557393 3.59547 0.848857C2.88559 1.14032 2.24065 1.56982 1.69803 2.11244C1.15541 2.65505 0.725916 3.3 0.434452 4.00987C0.142987 4.71975 -0.00464635 5.48042 0.000111439 6.24779C0.0238114 7.10847 0.210731 7.95682 0.550939 8.74776H5.36172Z" fill="#202020"/>
<path d="M14.6381 10.4144L12.3807 14.1769C12.3066 14.3001 12.2019 14.4021 12.0768 14.473C11.9516 14.5438 11.8103 14.581 11.6665 14.581H11.5998C11.4451 14.5687 11.2969 14.5135 11.1719 14.4214C11.0469 14.3294 10.9501 14.2043 10.8923 14.0602L8.1832 7.28363L6.54738 10.0103C6.47333 10.1335 6.36864 10.2355 6.2435 10.3063C6.11836 10.3772 5.97702 10.4144 5.83323 10.4144H1.37328C3.92741 14.8219 9.18485 19.1643 9.49985 19.4143C9.56553 19.4776 9.6445 19.5254 9.73101 19.5542C9.81751 19.583 9.90936 19.5922 9.99985 19.581C10.1769 19.5637 10.3478 19.5067 10.4998 19.4143C10.8148 19.1643 16.0723 14.8219 18.6264 10.4144H14.6381Z" fill="#202020"/>
</svg>
