<svg id="like" width="22" height="22" viewBox="0 0 22 22" fill="none" xmlns="http://www.w3.org/2000/svg">
<path d="M2.74954 8.9375H6.87454V17.875H2.74954C2.56721 17.875 2.39234 17.8026 2.26341 17.6736C2.13448 17.5447 2.06204 17.3698 2.06204 17.1875V9.625C2.06204 9.44266 2.13448 9.2678 2.26341 9.13886C2.39234 9.00993 2.56721 8.9375 2.74954 8.9375V8.9375Z" stroke="#161919" stroke-linecap="round" stroke-linejoin="round"/>
<path d="M6.87454 8.9375L10.312 2.0625C10.6732 2.0625 11.0308 2.13363 11.3644 2.27183C11.6981 2.41003 12.0012 2.6126 12.2566 2.86796C12.5119 3.12332 12.7145 3.42648 12.8527 3.76012C12.9909 4.09377 13.062 4.45136 13.062 4.8125V6.875H18.3795C18.5744 6.875 18.7672 6.91646 18.9449 6.99664C19.1226 7.07681 19.2812 7.19386 19.4103 7.34002C19.5393 7.48618 19.6358 7.65811 19.6933 7.84441C19.7508 8.0307 19.768 8.22709 19.7438 8.42055L18.7126 16.6705C18.671 17.0031 18.5094 17.309 18.2582 17.5308C18.007 17.7526 17.6834 17.875 17.3482 17.875H6.87454" stroke="#161919" stroke-linecap="round" stroke-linejoin="round"/>
</svg>
