<svg width="20" height="20" viewBox="0 0 20 20" fill="none" xmlns="http://www.w3.org/2000/svg">
<path fill-rule="evenodd" clip-rule="evenodd" d="M2.94975 6.22152C2.35875 7.26977 2.06116 8.70563 1.89682 9.8878C1.72586 11.1175 1.66803 12.3238 1.66722 13.0862C1.6569 13.6976 1.792 14.4195 2.0879 15.042C2.3406 15.5735 3.04006 16.6667 4.4312 16.6667C5.86141 16.6667 6.52648 15.4886 6.72472 15.127C6.83991 14.9168 6.94888 14.683 7.03057 14.5077L7.0723 14.4185C7.12651 14.303 7.17125 14.211 7.21056 14.1355C7.28763 14.1307 7.37332 14.1241 7.46649 14.1142C7.6556 14.094 7.84104 14.0598 8.01948 14.0175V16.6667H9.71359V13.4568C9.97617 13.3675 10.2578 13.2788 10.5796 13.1931C11.8542 12.854 12.5887 12.004 13.0151 11.4367C13.1139 11.3053 13.2058 11.1755 13.2799 11.0707L13.2968 11.0468C13.38 10.9293 13.4383 10.8478 13.4913 10.7793C13.5083 10.7575 13.5224 10.7399 13.5341 10.726C13.705 10.6457 13.9024 10.5798 14.1868 10.4966C14.2274 10.4847 14.2715 10.472 14.3183 10.4585C14.6187 10.3723 15.036 10.2524 15.4463 10.0777C16.2448 9.7378 16.8256 9.13355 17.2223 8.59738C17.6326 8.04296 17.9445 7.42792 18.1638 6.8797C18.5257 5.9754 18.2811 5.0451 17.6874 4.42689C17.1263 3.84251 16.3036 3.57348 15.4913 3.68619C14.6929 3.79699 13.9838 3.84516 13.7038 3.84516L13.6397 3.8452C13.0965 3.84573 12.7697 3.84604 10.3961 3.48519C7.71044 3.0769 4.56091 3.36389 2.94975 6.22152ZM9.71359 11.7042C9.84809 11.6639 9.98917 11.6237 10.1373 11.5843C11.0181 11.35 11.491 10.6816 11.8918 10.1152C12.1403 9.76421 12.3609 9.4523 12.6338 9.30713C13.0414 9.09021 13.449 8.97255 13.8566 8.8548C14.1623 8.76646 14.4679 8.67821 14.7737 8.54805C15.5943 8.19875 16.226 7.17266 16.5875 6.26923C16.8023 5.73256 16.3085 5.25596 15.728 5.33651C14.8858 5.4534 14.0916 5.51183 13.7038 5.51183C13.2565 5.51183 12.9494 5.51183 12.167 5.41825C11.8268 5.43033 11.6263 5.51224 11.5039 5.5934C11.3699 5.68227 11.2638 5.81398 11.1803 6.00541C10.9953 6.43021 10.9841 6.9847 10.9841 7.50007H9.29V7.45832C9.28967 6.98979 9.28909 6.11595 9.62325 5.34888C9.66242 5.25887 9.70675 5.1689 9.75684 5.08009C7.42463 4.79562 5.44633 5.22945 4.4312 7.02995C3.57528 8.54805 3.3613 11.7108 3.3613 13.1024C3.3444 13.8615 3.71793 15 4.4312 15C4.93635 15 5.20299 14.429 5.4845 13.8261C5.60048 13.5777 5.71899 13.3239 5.85775 13.1024C6.23342 12.5027 6.46071 12.4953 6.89134 12.4811C7.00577 12.4774 7.13455 12.4731 7.2843 12.4572C7.51793 12.4324 7.75614 12.3696 8.01948 12.2835V11.02C7.20766 11.2091 6.57311 11.1086 6.13598 10.8935C5.87245 10.764 5.65633 10.5789 5.54952 10.3687C5.50153 10.2743 5.43572 10.093 5.51525 9.89738C5.61456 9.65313 5.84878 9.58338 6.00775 9.58338H8.23936C8.40217 9.19471 8.65717 8.88571 9.0105 8.66838C9.56075 8.33006 10.2018 8.33223 10.5142 8.33329L10.5606 8.33338V10C10.3834 10 10.2502 10.0013 10.1266 10.0182C10.0077 10.0345 9.94342 10.0602 9.90842 10.0817C9.89834 10.0868 9.71359 10.1806 9.71359 10.8334V11.7042Z" fill="#0E0B20"/>
</svg>
