<svg width="16" height="16" viewBox="0 0 16 16" fill="none" xmlns="http://www.w3.org/2000/svg">
<path fill-rule="evenodd" clip-rule="evenodd" d="M8.27356 14.9289C8.27371 14.929 8.27383 14.9291 8.5 14.6111L8.27356 14.9289ZM8.72644 14.9289L8.72786 14.9279L8.73143 14.9254L8.74392 14.9165C8.75465 14.9089 8.77009 14.8979 8.78989 14.8835C8.82949 14.8547 8.88665 14.8125 8.9589 14.7575C9.10331 14.6476 9.30815 14.4864 9.55329 14.279C10.043 13.8644 10.6964 13.2628 11.3508 12.5134C12.6501 11.0255 14 8.90203 14 6.47435C14 5.02321 13.4211 3.63103 12.3899 2.60421C11.3586 1.57732 9.95942 1 8.5 1C7.04058 1 5.64138 1.57732 4.61009 2.60421C3.57891 3.63103 3 5.02321 3 6.47435C3 8.90203 4.3499 11.0255 5.64923 12.5134C6.30361 13.2628 6.95697 13.8644 7.44671 14.279C7.69185 14.4864 7.89669 14.6476 8.0411 14.7575C8.11335 14.8125 8.17051 14.8547 8.21011 14.8835C8.22991 14.8979 8.24535 14.9089 8.25608 14.9165L8.26857 14.9254L8.27214 14.9279L8.27356 14.9289C8.40921 15.0234 8.59079 15.0234 8.72644 14.9289ZM8.5 14.6111L8.72644 14.9289C8.72629 14.929 8.72617 14.9291 8.5 14.6111ZM10.4643 6.44444C10.4643 7.51832 9.58484 8.38889 8.5 8.38889C7.41516 8.38889 6.53571 7.51832 6.53571 6.44444C6.53571 5.37057 7.41516 4.5 8.5 4.5C9.58484 4.5 10.4643 5.37057 10.4643 6.44444Z" fill="#202020"/>
</svg>
