<svg width="24" height="24" viewBox="0 0 24 24" fill="none" xmlns="http://www.w3.org/2000/svg">
<path d="M12.0001 4V9M12.0001 9L9 10.5M12.0001 9L15 10.5M5.17467 19H7.00005C8.10462 19 9.00005 18.1046 9.00005 17V7.09523C9.00005 6.49035 8.5097 6 7.90482 6C7.52067 6 7.16346 6.20162 6.9686 6.53268C4.57121 10.6059 3.685 13.2389 3.22371 16.8368C3.07486 17.9977 4.00422 19 5.17467 19ZM18.8254 19H17.0001C15.8955 19 15.0001 18.1046 15.0001 17V7.09523C15.0001 6.49035 15.4904 6 16.0953 6C16.4794 6 16.8366 6.20162 17.0315 6.53268C19.4289 10.6059 20.3151 13.2389 20.7764 16.8368C20.9252 17.9977 19.9959 19 18.8254 19Z" stroke="#0E0B20" stroke-width="1.5" stroke-linecap="round" stroke-linejoin="round"/>
</svg>
