<svg width="14" height="14" viewBox="0 0 14 14" fill="none" xmlns="http://www.w3.org/2000/svg">
<g clip-path="url(#clip0_672_7504)">
<path fill-rule="evenodd" clip-rule="evenodd" d="M9.625 5.83334C11.7191 5.83334 13.4167 7.5309 13.4167 9.62501C13.4167 11.7191 11.7191 13.4167 9.625 13.4167C7.53089 13.4167 5.83334 11.7191 5.83334 9.62501C5.83334 7.5309 7.53089 5.83334 9.625 5.83334ZM7.46259 10.9626L8.28742 11.7874L11.7874 8.28743L10.9626 7.46259L7.46259 10.9626Z" fill="#212121"/>
<path d="M4.94958 1.65025C6.31634 0.283475 8.53254 0.283596 9.89935 1.65025C10.7604 2.51146 11.0781 3.70938 10.8541 4.81984C10.4611 4.71961 10.049 4.66661 9.62477 4.66661C8.46598 4.66665 7.40075 5.06516 6.55661 5.7313L3.71227 2.88699L4.94958 1.65025Z" fill="#212121"/>
<path d="M5.73173 6.55674C5.0655 7.40094 4.66648 8.46605 4.66646 9.62496C4.66646 10.0493 4.72 10.4612 4.82027 10.8543C3.70969 11.0785 2.51142 10.7607 1.6501 9.89953C0.283472 8.53267 0.283392 6.31653 1.6501 4.94974L2.88741 3.71243L5.73173 6.55674Z" fill="#212121"/>
</g>
<defs>
<clipPath id="clip0_672_7504">
<rect width="14" height="14" fill="white"/>
</clipPath>
</defs>
</svg>
