<svg width="16" height="16" viewBox="0 0 16 16" fill="none" xmlns="http://www.w3.org/2000/svg">
<path d="M8 9.33329C8.73638 9.33329 9.33333 8.73634 9.33333 7.99996C9.33333 7.26358 8.73638 6.66663 8 6.66663C7.26362 6.66663 6.66666 7.26358 6.66666 7.99996C6.66666 8.73634 7.26362 9.33329 8 9.33329Z" fill="#0E0B20"/>
<path d="M2 9.33329C2.73638 9.33329 3.33333 8.73634 3.33333 7.99996C3.33333 7.26358 2.73638 6.66663 2 6.66663C1.26362 6.66663 0.666664 7.26358 0.666664 7.99996C0.666664 8.73634 1.26362 9.33329 2 9.33329Z" fill="#0E0B20"/>
<path d="M14 9.33329C14.7364 9.33329 15.3333 8.73634 15.3333 7.99996C15.3333 7.26358 14.7364 6.66663 14 6.66663C13.2636 6.66663 12.6667 7.26358 12.6667 7.99996C12.6667 8.73634 13.2636 9.33329 14 9.33329Z" fill="#0E0B20"/>
</svg>
