<svg width="16" height="16" viewBox="0 0 16 16" fill="none" xmlns="http://www.w3.org/2000/svg">
<path d="M36.7675 33.2326L26.675 23.1401C25.7454 24.5434 24.5433 25.7456 23.14 26.6751L33.2325 36.7676C33.704 37.223 34.3355 37.475 34.991 37.4693C35.6465 37.4636 36.2735 37.2007 36.737 36.7372C37.2006 36.2737 37.4635 35.6466 37.4692 34.9911C37.4749 34.3356 37.2229 33.7041 36.7675 33.2326Z" fill="#0E0B20"/>
<path d="M8.29874 24.2012C7.20166 23.1691 6.32302 21.9272 5.71492 20.5491C5.10681 19.1711 4.78163 17.685 4.75866 16.1789C4.73568 14.6728 5.01538 13.1774 5.58117 11.7815C6.14696 10.3855 6.98731 9.11742 8.0524 8.05233C9.11748 6.98725 10.3856 6.1469 11.7816 5.58111C13.1775 5.01532 14.6729 4.73562 16.1789 4.75859C17.685 4.78157 19.1711 5.10675 20.5492 5.71485C21.9272 6.32296 23.1691 7.2016 24.2012 8.29867L25.9687 6.53117C24.7062 5.19438 23.1884 4.12438 21.5051 3.38449C19.8218 2.6446 18.0072 2.24984 16.1687 2.22357C14.3301 2.1973 12.505 2.54006 10.8012 3.23156C9.09745 3.92307 7.54969 4.94927 6.24951 6.24945C4.94933 7.54963 3.92313 9.09739 3.23162 10.8011C2.54012 12.5049 2.19737 14.33 2.22363 16.1686C2.2499 18.0071 2.64466 19.8217 3.38455 21.5051C4.12444 23.1884 5.19444 24.7062 6.53124 25.9687L8.29874 24.2012Z" fill="#0E0B20"/>
<path d="M26.3912 11.4112C27.399 13.5077 27.7306 15.8655 27.3402 18.1586C26.9497 20.4517 25.8565 22.5668 24.2117 24.2117C22.5669 25.8565 20.4517 26.9497 18.1586 27.3401C15.8655 27.7306 13.5077 27.399 11.4112 26.3912L9.55374 28.25C12.1651 29.7132 15.1829 30.2834 18.1481 29.8736C21.1133 29.4638 23.8634 28.0966 25.98 25.98C28.0967 23.8634 29.4639 21.1132 29.8736 18.1481C30.2834 15.1829 29.7133 12.165 28.25 9.55371L26.3912 11.4112Z" fill="#0E0B20"/>
<path d="M3.74998 29.9997C3.50279 29.9997 3.26117 29.9263 3.05565 29.789C2.85014 29.6516 2.68997 29.4564 2.59538 29.2281C2.50079 28.9997 2.47604 28.7484 2.52425 28.5059C2.57246 28.2635 2.69147 28.0408 2.86623 27.866L27.8662 2.86599C27.9815 2.7466 28.1195 2.65137 28.272 2.58586C28.4245 2.52035 28.5885 2.48586 28.7545 2.48442C28.9205 2.48298 29.085 2.51461 29.2387 2.57746C29.3923 2.64031 29.5319 2.73313 29.6492 2.85049C29.7666 2.96786 29.8594 3.10742 29.9223 3.26104C29.9851 3.41466 30.0167 3.57926 30.0153 3.74524C30.0138 3.91121 29.9794 4.07524 29.9139 4.22774C29.8483 4.38025 29.7531 4.51818 29.6337 4.63349L4.63373 29.6335C4.39936 29.8679 4.08147 29.9997 3.74998 29.9997Z" fill="#0E0B20"/>
</svg>
