<svg id="physiology" width="100" height="100" viewBox="0 0 100 100" fill="none" xmlns="http://www.w3.org/2000/svg">
<g clip-path="url(#clip0)">
<path d="M49.8334 39.0833V60.1667" stroke="#FFD45A" stroke-width="1.5" stroke-miterlimit="10"/>
<path d="M58.0834 41.4167V57.8333" stroke="#FFD45A" stroke-width="1.5" stroke-miterlimit="10"/>
<path d="M66.4167 46.9167V52.3333" stroke="#FFD45A" stroke-width="1.5" stroke-miterlimit="10"/>
<path d="M33.3334 46.9167V52.3333" stroke="#161919" stroke-width="1.5" stroke-miterlimit="10"/>
<path d="M41.5834 41.4167V57.8333" stroke="#161919" stroke-width="1.5" stroke-miterlimit="10"/>
<path d="M98.8334 39.0833V60.1667" stroke="#161919" stroke-width="1.5" stroke-miterlimit="10"/>
<path d="M82.3334 46.9167V52.3333" stroke="#161919" stroke-width="1.5" stroke-miterlimit="10"/>
<path d="M90.5834 41.4167V57.8333" stroke="#161919" stroke-width="1.5" stroke-miterlimit="10"/>
<path d="M0.833374 60.1667V39.0833" stroke="#161919" stroke-width="1.5" stroke-miterlimit="10"/>
<path d="M17.4167 52.3333V46.9167" stroke="#161919" stroke-width="1.5" stroke-miterlimit="10"/>
<path d="M9.08337 57.8333V41.4167" stroke="#161919" stroke-width="1.5" stroke-miterlimit="10"/>
<path d="M98.8334 34.1667C89.6667 34.1667 80.8334 39.75 74.3334 49.5833C67.8334 59.5 59 65 49.8334 65C40.6667 65 31.8334 59.4167 25.3334 49.5833C18.8334 39.75 10 34.1667 0.833374 34.1667" stroke="#161919" stroke-width="1.5" stroke-miterlimit="10" stroke-linecap="square"/>
<path d="M98.8334 65.0833C89.6667 65.0833 80.8334 59.5 74.3334 49.6667C67.8334 39.75 59 34.1667 49.8334 34.1667C40.6667 34.1667 31.8334 39.75 25.3334 49.5833C18.8334 59.5 10 65.0833 0.833374 65.0833" stroke="#161919" stroke-width="1.5" stroke-miterlimit="10" stroke-linecap="square"/>
</g>
<defs>
<clipPath id="clip0">
<rect width="99.6667" height="32.5833" fill="white" transform="translate(0 33.3333)"/>
</clipPath>
</defs>
</svg>
