<svg width="24" height="24" viewBox="0 0 24 24" fill="none" xmlns="http://www.w3.org/2000/svg">
<path d="M13.6777 19.2633C14.8492 20.4349 16.7487 20.4349 17.9203 19.2633L19.3345 17.8491C20.5061 16.6776 20.5061 14.7781 19.3345 13.6065M4.80784 10.3936C3.63632 9.22206 3.63632 7.32266 4.80784 6.15114L6.22215 4.73683C7.39372 3.56525 9.30928 3.58131 10.4809 4.75289M12.1346 6.27988L13.6776 4.73683C14.8492 3.56526 16.7487 3.56526 17.9202 4.73683L19.3345 6.15105C20.506 7.32262 20.506 9.22211 19.3345 10.3937L17.7914 11.9367M12.1346 6.27988L6.35109 12.0633M12.1346 6.27988L17.7914 11.9367M17.7914 11.9367L12.0079 17.7202M6.35109 12.0633L4.80792 13.6065C3.63635 14.7781 3.63635 16.6776 4.80792 17.8492L6.22214 19.2634C7.39371 20.4349 9.2932 20.4349 10.4648 19.2634L12.0079 17.7202M6.35109 12.0633L12.0079 17.7202" stroke="#0E0B20" stroke-width="1.5" stroke-linecap="round" stroke-linejoin="round"/>
</svg>
