<svg width="24" height="24" viewBox="0 0 24 24" fill="none" xmlns="http://www.w3.org/2000/svg">
<path d="M13.6777 19.2636C14.8492 20.4352 16.7487 20.4352 17.9203 19.2636L19.3345 17.8494C20.5061 16.6778 20.5061 14.7783 19.3345 13.6067M4.80784 10.3938C3.63632 9.22231 3.63632 7.3229 4.80784 6.15139L6.22215 4.73707C7.39372 3.5655 9.30928 3.58156 10.4809 4.75313M12.0001 10.5002V10.5101M11.0001 13.0002V13.0101M13.5001 12.5002V12.5101M12.1346 6.28013L13.6776 4.73708C14.8492 3.56551 16.7487 3.56551 17.9202 4.73708L19.3345 6.15129C20.506 7.32286 20.506 9.22236 19.3345 10.3939L17.7914 11.937M12.1346 6.28013L6.35109 12.0636M12.1346 6.28013L17.7914 11.937M17.7914 11.937L12.0079 17.7204M6.35109 12.0636L4.80792 13.6068C3.63635 14.7783 3.63635 16.6778 4.80792 17.8494L6.22214 19.2636C7.39371 20.4352 9.2932 20.4352 10.4648 19.2636L12.0079 17.7204M6.35109 12.0636L12.0079 17.7204" stroke="#0E0B20" stroke-width="1.5" stroke-linecap="round" stroke-linejoin="round"/>
</svg>
