<svg width="24" height="24" viewBox="0 0 24 24" fill="none" xmlns="http://www.w3.org/2000/svg">
<path d="M4.66667 4.66667C4.63845 3.98929 4.87981 3.32834 5.33788 2.82853C5.79595 2.32873 6.4334 2.03081 7.11067 2C10.7267 2 12 7.33333 12 7.33333H7.11067C6.43328 7.30287 5.79561 7.00505 5.33747 6.50517C4.87933 6.00529 4.6381 5.34413 4.66667 4.66667Z" stroke="#0E0B20" stroke-width="1.5" stroke-linecap="round" stroke-linejoin="round"/>
<path d="M19.3333 4.66667C19.3615 3.98929 19.1202 3.32834 18.6621 2.82853C18.2041 2.32873 17.5666 2.03081 16.8893 2C13.2733 2 12 7.33333 12 7.33333H16.8893C17.5667 7.30287 18.2044 7.00505 18.6625 6.50517C19.1207 6.00529 19.3619 5.34413 19.3333 4.66667Z" stroke="#0E0B20" stroke-width="1.5" stroke-linecap="round" stroke-linejoin="round"/>
<path d="M19.3333 14V20C19.3333 20.5304 19.1226 21.0391 18.7475 21.4142C18.3725 21.7893 17.8638 22 17.3333 22H6.66667C6.13623 22 5.62753 21.7893 5.25245 21.4142C4.87738 21.0391 4.66667 20.5304 4.66667 20V14" stroke="#0E0B20" stroke-width="1.5" stroke-linecap="round" stroke-linejoin="round"/>
<path d="M22 7.33337H2V11.3334H22V7.33337Z" stroke="#0E0B20" stroke-width="1.5" stroke-linecap="round" stroke-linejoin="round"/>
</svg>
