<svg width="20" height="20" viewBox="0 0 20 20" fill="none" xmlns="http://www.w3.org/2000/svg">
<path d="M6.66481 14.1673C6.66217 13.1818 6.85502 12.2055 7.2322 11.295C7.60939 10.3846 8.1634 9.55795 8.86219 8.86303L5.55779 5.55778L8.4754 2.64016C9.04696 2.06103 9.81097 1.7115 10.6229 1.65772C11.4348 1.60393 12.2382 1.84963 12.8812 2.3483C13.5241 2.84697 13.962 3.56403 14.1119 4.36378C14.2618 5.16353 14.1133 5.99048 13.6946 6.68815C13.8513 6.67815 14.008 6.66481 14.1673 6.66481C14.6146 6.66604 15.0609 6.70705 15.501 6.78735C15.9098 5.71793 15.9393 4.54065 15.5846 3.4521C15.2299 2.36356 14.5125 1.42964 13.5522 0.806311C12.5919 0.182982 11.4468 -0.0920278 10.3081 0.0272068C9.16948 0.146441 8.1062 0.652702 7.29585 1.46145L1.46062 7.29668C0.652133 8.10715 0.146138 9.17044 0.0271149 10.309C-0.0919082 11.4476 0.183244 12.5925 0.806632 13.5527C1.43002 14.5128 2.36391 15.2301 3.45238 15.5847C4.54085 15.9393 5.71803 15.9097 6.78735 15.501C6.70705 15.0609 6.66604 14.6146 6.66481 14.1673Z" fill="#0E0B20"/>
<circle cx="14" cy="14" r="6" fill="#0E0B20"/>
</svg>
