<svg width="22" height="22" viewBox="0 0 22 22" fill="none" xmlns="http://www.w3.org/2000/svg">
<path d="M5.51538 5.5153L9.11936 9.11928M16.348 6.49599C16.5547 5.53743 16.4454 4.53771 16.0365 3.64643C15.6276 2.75515 14.9411 2.02025 14.0797 1.55168C13.2183 1.08312 12.2284 0.906098 11.2579 1.04711C10.2875 1.18811 9.3889 1.63957 8.69648 2.33392L2.33384 8.69656C1.63932 9.38921 1.18785 10.2882 1.04703 11.2589C0.906208 12.2296 1.08361 13.2199 1.55266 14.0813C2.02172 14.9428 2.7572 15.6291 3.64898 16.0376C4.54076 16.4461 5.54087 16.5547 6.49955 16.3472M21 15.5462C21 18.5582 18.5583 20.9999 15.5463 20.9999C12.5343 20.9999 10.0926 18.5582 10.0926 15.5462C10.0926 12.5342 12.5343 10.0925 15.5463 10.0925C18.5583 10.0925 21 12.5342 21 15.5462Z" stroke="#202020" stroke-width="2" stroke-miterlimit="10" stroke-linecap="square"/>
</svg>
