<svg id="questions" width="100" height="100" viewBox="0 0 100 100" fill="none" xmlns="http://www.w3.org/2000/svg">
<path d="M20.6819 40.209V36H83.6328V60.5846H79.4237" stroke="#161919" stroke-width="1.5" stroke-miterlimit="10"/>
<path d="M20.6818 40.209H79.4237V64.2581H17V40.209H20.6818Z" stroke="#161919" stroke-width="1.5" stroke-miterlimit="10"/>
<path d="M43.8524 48.0663C44.0783 47.489 44.3879 46.9953 44.7896 46.5685C45.1912 46.1418 45.6766 45.8154 46.2456 45.5811C46.8146 45.3468 47.4504 45.2297 48.1533 45.2297C49.0654 45.2297 49.8186 45.3552 50.4295 45.6062C51.0403 45.8572 51.5256 46.1669 51.8938 46.535C52.262 46.9032 52.5297 47.3049 52.6887 47.7316C52.8477 48.1584 52.9314 48.56 52.9314 48.9282C52.9314 49.5391 52.8477 50.0495 52.6887 50.4428C52.5297 50.8361 52.3289 51.1792 52.0946 51.4553C51.8603 51.7398 51.5925 51.9741 51.308 52.1749C51.0235 52.3758 50.7474 52.5682 50.4964 52.7691C50.237 52.9699 50.0111 53.1958 49.8186 53.4469C49.6178 53.7063 49.4922 54.0242 49.442 54.4091V55.1371H46.8564V54.2753C46.8982 53.723 46.9987 53.2628 47.1744 52.8946C47.3501 52.5264 47.5509 52.2084 47.7768 51.949C48.0028 51.6896 48.2454 51.4637 48.5048 51.2712C48.7642 51.0788 48.9985 50.8863 49.2161 50.6938C49.4336 50.5014 49.6094 50.2922 49.7432 50.0579C49.8771 49.8236 49.9357 49.5391 49.9273 49.196C49.9273 48.6103 49.7851 48.1751 49.4923 47.8906C49.1994 47.6061 48.8061 47.4722 48.2956 47.4722C47.9526 47.4722 47.6514 47.5392 47.4087 47.6731C47.1577 47.8069 46.9568 47.9827 46.7978 48.2086C46.6388 48.4345 46.5217 48.6939 46.4464 48.9952C46.3711 49.2964 46.3292 49.6144 46.3292 49.9658H43.5093C43.5093 49.2713 43.6265 48.6354 43.8524 48.0663ZM49.5927 56.2919V59.2457H46.5802V56.2919H49.5927Z" fill="#FFD45A"/>
</svg>
