<svg width="16" height="16" viewBox="0 0 16 16" fill="none" xmlns="http://www.w3.org/2000/svg">
<g clip-path="url(#clip0_672_7519)">
<path d="M10.629 8.00566C10.6301 9.4126 11.0615 10.7861 11.8653 11.9418C14.2287 11.0144 15.5739 8.38956 15.6386 8.25367C15.6766 8.17773 15.6966 8.09402 15.6969 8.00907C15.6973 7.92412 15.678 7.8402 15.6407 7.76385C15.5738 7.62827 14.2496 4.99008 11.8628 4.06404C11.0578 5.22027 10.6272 6.59601 10.629 8.00566Z" fill="#212121"/>
<path d="M9.52437 8.00498C9.52267 6.51108 9.94051 5.04724 10.7303 3.78015C10.5517 3.75694 10.372 3.74431 10.192 3.74232C7.06482 3.74273 5.18199 6.08364 4.46669 7.19056L2.48462 5.70347C2.40245 5.64145 2.30461 5.60358 2.20214 5.59415C2.09967 5.58472 1.99664 5.60409 1.90466 5.65008C1.81267 5.69607 1.73539 5.76685 1.68153 5.85445C1.62766 5.94204 1.59935 6.04298 1.59978 6.14587L1.60208 9.85662C1.60176 9.95948 1.63016 10.0604 1.68408 10.1481C1.73801 10.2357 1.81532 10.3066 1.90731 10.3528C1.99929 10.3989 2.1023 10.4184 2.20474 10.4092C2.30717 10.4 2.40495 10.3623 2.48708 10.3005L4.46731 8.81587C4.80419 9.33706 5.19489 9.82145 5.63299 10.261C6.22111 10.8841 6.92809 11.3829 7.71207 11.7281C8.49606 12.0733 9.34113 12.2579 10.1973 12.2708C10.3769 12.2693 10.5563 12.2567 10.7343 12.2332C9.94341 10.9643 9.52419 9.49937 9.52437 8.00498Z" fill="#212121"/>
</g>
<defs>
<clipPath id="clip0_672_7519">
<rect width="16" height="16" fill="white"/>
</clipPath>
</defs>
</svg>
