<svg width="16" height="16" viewBox="0 0 16 16" fill="none" xmlns="http://www.w3.org/2000/svg">
<g clip-path="url(#clip0_1028_5803)">
<path d="M15.0407 13.626L11.552 10.1374C12.4271 8.90756 12.8081 7.39384 12.6196 5.8963C12.431 4.39875 11.6867 3.02671 10.5341 2.05215C9.38157 1.07758 7.9049 0.571653 6.39685 0.634642C4.8888 0.697631 3.45946 1.32494 2.39218 2.39223C1.3249 3.45951 0.697586 4.88884 0.634596 6.39689C0.571607 7.90494 1.07754 9.38161 2.0521 10.5342C3.02666 11.6867 4.39871 12.4311 5.89625 12.6196C7.39379 12.8081 8.90751 12.4271 10.1373 11.552L13.626 15.0407C13.8136 15.2283 14.068 15.3337 14.3333 15.3337C14.5986 15.3337 14.8531 15.2283 15.0407 15.0407C15.2283 14.8531 15.3337 14.5987 15.3337 14.3334C15.3337 14.0681 15.2283 13.8136 15.0407 13.626ZM2 6.66671C2 5.74373 2.2737 4.84148 2.78648 4.07405C3.29926 3.30662 4.02809 2.70848 4.88081 2.35528C5.73353 2.00207 6.67184 1.90965 7.57709 2.08972C8.48233 2.26978 9.31385 2.71424 9.9665 3.36688C10.6191 4.01953 11.0636 4.85105 11.2437 5.75629C11.4237 6.66154 11.3313 7.59985 10.9781 8.45257C10.6249 9.30529 10.0268 10.0341 9.25933 10.5469C8.4919 11.0597 7.58965 11.3334 6.66667 11.3334C5.42942 11.332 4.24326 10.8399 3.3684 9.96499C2.49353 9.09012 2.00141 7.90396 2 6.66671Z" fill="#0E0B20"/>
</g>
<defs>
<clipPath id="clip0_1028_5803">
<rect width="16" height="16" fill="white"/>
</clipPath>
</defs>
</svg>
