<svg width="16" height="16" viewBox="0 0 16 16" fill="none" xmlns="http://www.w3.org/2000/svg">
<path d="M7.61426 4.29883H11.998L12.1387 4.86914L12.624 6.83398L14.5898 7.82812L15.002 8.03613V12.6963H12.1514C12.0622 13.9739 11.0105 14.995 9.70605 14.9951C8.40149 14.9951 7.34895 13.974 7.25977 12.6963H6.11426V3.5H1V2H7.61426V4.29883ZM9.70605 11.5469C9.18675 11.5469 8.75098 11.9753 8.75098 12.5215C8.75126 13.0674 9.18692 13.4951 9.70605 13.4951C10.2251 13.495 10.6599 13.0673 10.6602 12.5215C10.6602 11.9754 10.2252 11.547 9.70605 11.5469ZM5.34277 12.1211H3.27344V10.6211H5.34277V12.1211ZM7.61426 11.1963H7.63574C8.07008 10.5078 8.83079 10.0469 9.70605 10.0469C10.5812 10.047 11.3413 10.5079 11.7754 11.1963H13.502V8.95898L11.6406 8.01758L11.333 7.8623L11.251 7.52832L10.8232 5.79883H7.61426V11.1963ZM5.3418 9.24707H2.13672V7.74707H5.3418V9.24707ZM9.8877 7.17285H11.0244V8.67285H8.3877V6.02344H9.8877V7.17285ZM5.3418 6.37402H1V4.87402H5.3418V6.37402Z" fill="#0E0B20"/>
</svg>
