<svg width="16" height="16" viewBox="0 0 16 16" fill="none" xmlns="http://www.w3.org/2000/svg">
<path d="M5.26819 4.15875C5.26819 3.82873 5.53589 3.56104 5.86591 3.56104C6.19592 3.56104 6.46362 3.82873 6.46362 4.15875V8.6912L7.57735 7.57747C7.81071 7.34411 8.1893 7.34411 8.42265 7.57747L9.53638 8.6912V4.15875C9.53638 3.82873 9.80408 3.56104 10.1341 3.56104C10.4641 3.56104 10.7318 3.82873 10.7318 4.15875V10.1342C10.7318 10.3759 10.5858 10.5936 10.3625 10.6861C10.1393 10.7785 9.8823 10.7277 9.71145 10.5569L8 8.84542L6.28856 10.5569C6.1177 10.7277 5.86074 10.7785 5.63749 10.6861C5.4142 10.5936 5.26819 10.3759 5.26819 10.1342V4.15875Z" fill="#0E0B20"/>
<path d="M12.2682 1L12.334 1.00417C12.4866 1.02109 12.6282 1.09585 12.7275 1.21508L14.8616 3.77599C14.9511 3.88337 15 4.01888 15 4.15863V13.5486C15 13.8787 14.7323 14.1464 14.4023 14.1464H1.59771C1.2677 14.1464 1 13.8787 1 13.5486V4.15863C1 4.01888 1.04894 3.88337 1.13838 3.77599L3.27248 1.21508L3.31749 1.16673C3.42818 1.06031 3.57658 1 3.73181 1H12.2682ZM2.19543 4.37454V12.9509H13.8046V4.37454L11.9881 2.19543H4.01191L2.19543 4.37454Z" fill="#0E0B20"/>
<path d="M14.4023 3.56104C14.7323 3.56104 15 3.82873 15 4.15875C15 4.48876 14.7323 4.75646 14.4023 4.75646H1.59771C1.2677 4.75646 1 4.48876 1 4.15875C1 3.82873 1.2677 3.56104 1.59771 3.56104H14.4023Z" fill="#0E0B20"/>
</svg>
