<svg id="singularity" width="100" height="100" viewBox="0 0 100 100" fill="none" xmlns="http://www.w3.org/2000/svg">
<g clip-path="url(#clip0)">
<path d="M82.9661 55.6173C86.2986 55.6173 89.0001 52.9158 89.0001 49.5833C89.0001 46.2509 86.2986 43.5494 82.9661 43.5494C79.6336 43.5494 76.9321 46.2509 76.9321 49.5833C76.9321 52.9158 79.6336 55.6173 82.9661 55.6173Z" fill="#FFD45A"/>
<path d="M55.0774 34.0569C58.4099 34.0569 61.1114 31.3554 61.1114 28.0229C61.1114 24.6905 58.4099 21.989 55.0774 21.989C51.745 21.989 49.0435 24.6905 49.0435 28.0229C49.0435 31.3554 51.745 34.0569 55.0774 34.0569Z" stroke="#161919" stroke-width="1.5" stroke-miterlimit="10"/>
<path d="M30.2057 34.0569C33.5382 34.0569 36.2397 31.3554 36.2397 28.0229C36.2397 24.6905 33.5382 21.989 30.2057 21.989C26.8732 21.989 24.1718 24.6905 24.1718 28.0229C24.1718 31.3554 26.8732 34.0569 30.2057 34.0569Z" stroke="#161919" stroke-width="1.5" stroke-miterlimit="10"/>
<path d="M17.7698 55.6173C21.1023 55.6173 23.8038 52.9158 23.8038 49.5833C23.8038 46.2509 21.1023 43.5494 17.7698 43.5494C14.4373 43.5494 11.7358 46.2509 11.7358 49.5833C11.7358 52.9158 14.4373 55.6173 17.7698 55.6173Z" stroke="#161919" stroke-width="1.5" stroke-miterlimit="10"/>
<path d="M30.2057 77.1041C33.5382 77.1041 36.2397 74.4026 36.2397 71.0701C36.2397 67.7376 33.5382 65.0361 30.2057 65.0361C26.8732 65.0361 24.1718 67.7376 24.1718 71.0701C24.1718 74.4026 26.8732 77.1041 30.2057 77.1041Z" stroke="#161919" stroke-width="1.5" stroke-miterlimit="10"/>
<path d="M55.0774 77.1041C58.4099 77.1041 61.1114 74.4026 61.1114 71.0701C61.1114 67.7376 58.4099 65.0361 55.0774 65.0361C51.745 65.0361 49.0435 67.7376 49.0435 71.0701C49.0435 74.4026 51.745 77.1041 55.0774 77.1041Z" stroke="#161919" stroke-width="1.5" stroke-miterlimit="10"/>
</g>
<defs>
<clipPath id="clip0">
<rect width="78" height="56.6604" fill="white" transform="translate(11 21.2531)"/>
</clipPath>
</defs>
</svg>
