<svg id="social" width="100" height="100" viewBox="0 0 100 100" fill="none" xmlns="http://www.w3.org/2000/svg">
<g clip-path="url(#clip0)">
<path d="M49.5833 37.3398L60.3251 53.0632H38.8416L49.5833 37.3398Z" fill="#FFD45A"/>
<path d="M19.9268 38.663V54.9313C19.9268 60.4579 22.8846 65.6731 27.7106 68.3974L41.7995 76.4927" stroke="#161919" stroke-width="1.5" stroke-miterlimit="10"/>
<path d="M71.4561 25.1969L57.3673 17.1017C52.5413 14.2995 46.6255 14.2995 41.7995 17.1017L27.7107 25.1969" stroke="#161919" stroke-width="1.5" stroke-miterlimit="10"/>
<path d="M57.3672 76.5705L71.456 68.4753C76.282 65.6731 79.2399 60.5357 79.2399 55.0092V38.663" stroke="#161919" stroke-width="1.5" stroke-miterlimit="10"/>
<path d="M49.1942 85.8334C51.9455 85.8334 54.1759 83.603 54.1759 80.8517C54.1759 78.1004 51.9455 75.87 49.1942 75.87C46.4429 75.87 44.2125 78.1004 44.2125 80.8517C44.2125 83.603 46.4429 85.8334 49.1942 85.8334Z" stroke="#161919" stroke-width="1.5" stroke-miterlimit="10"/>
<path d="M19.9268 35.0824C22.6781 35.0824 24.9084 32.8521 24.9084 30.1008C24.9084 27.3494 22.6781 25.1191 19.9268 25.1191C17.1754 25.1191 14.9451 27.3494 14.9451 30.1008C14.9451 32.8521 17.1754 35.0824 19.9268 35.0824Z" stroke="#161919" stroke-width="1.5" stroke-miterlimit="10"/>
<path d="M79.24 34.304C81.9913 34.304 84.2217 32.0737 84.2217 29.3224C84.2217 26.5711 81.9913 24.3407 79.24 24.3407C76.4887 24.3407 74.2583 26.5711 74.2583 29.3224C74.2583 32.0737 76.4887 34.304 79.24 34.304Z" stroke="#161919" stroke-width="1.5" stroke-miterlimit="10"/>
</g>
<defs>
<clipPath id="clip0">
<rect width="70.8333" height="72.3901" fill="white" transform="translate(14.1666 14.2216)"/>
</clipPath>
</defs>
</svg>
