<svg width="24" height="24" viewBox="0 0 24 24" fill="none" xmlns="http://www.w3.org/2000/svg">
<path d="M12 2.75C14.3782 2.75 16.0867 2.75198 17.3867 2.92676C18.6649 3.09865 19.4353 3.42551 20.0049 3.99512C20.5745 4.56472 20.9014 5.33508 21.0732 6.61328C21.248 7.91326 21.25 9.62178 21.25 12C21.25 14.3782 21.248 16.0867 21.0732 17.3867C20.9014 18.6649 20.5745 19.4353 20.0049 20.0049C19.4353 20.5745 18.6649 20.9014 17.3867 21.0732C16.0867 21.248 14.3782 21.25 12 21.25C9.62178 21.25 7.91326 21.248 6.61328 21.0732C5.33508 20.9014 4.56472 20.5745 3.99512 20.0049C3.42551 19.4353 3.09865 18.6649 2.92676 17.3867C2.75198 16.0867 2.75 14.3782 2.75 12C2.75 9.62178 2.75198 7.91326 2.92676 6.61328C3.09865 5.33508 3.42551 4.56472 3.99512 3.99512C4.56472 3.42551 5.33508 3.09865 6.61328 2.92676C7.91326 2.75198 9.62178 2.75 12 2.75Z" stroke="#202020" stroke-width="1.5"/>
<path d="M7.78947 12.5264L10.4211 15.158L16.2105 8.84216" stroke="#202020" stroke-width="1.5" stroke-linecap="round" stroke-linejoin="round"/>
</svg>
