<svg width="24" height="24" viewBox="0 0 24 24" fill="none" xmlns="http://www.w3.org/2000/svg">
<path d="M11.6895 3C12.5532 3.45346 13.1405 3.99679 13.0002 5C12.5881 7.94606 11.099 11.6561 8.68171 12.8414C8.46567 12.9473 8.23232 13.0002 7.999 13M4.31089 3C3.44724 3.45346 2.85993 3.99679 3.00024 5C3.41231 7.94606 4.90139 11.6561 7.31871 12.8414C7.534 12.9469 7.76649 12.9998 7.999 13M19.0002 17C20.1048 17 21.0002 17.8954 21.0002 19C21.0002 20.1046 20.1048 21 19.0002 21C17.8956 21 17.0002 20.1046 17.0002 19C17.0002 17.8954 17.8956 17 19.0002 17ZM19.0002 17V15.5C19.0002 14.837 18.7368 14.2011 18.268 13.7322C17.7991 13.2634 17.1633 13 16.5002 13C15.8372 13 15.2013 13.2634 14.7324 13.7322C14.2636 14.2011 14.0002 14.837 14.0002 15.5V17C14.0002 17.7956 13.6841 18.5587 13.1215 19.1213C12.5589 19.6839 11.7959 20 11.0002 20C10.2046 20 9.4415 19.6839 8.87889 19.1213C8.31628 18.5587 8.00021 17.7956 8.00021 17L7.999 13" stroke="#0E0B20" stroke-width="1.5" stroke-linecap="round" stroke-linejoin="round"/>
</svg>
