<svg width="24" height="24" viewBox="0 0 24 24" fill="none" xmlns="http://www.w3.org/2000/svg">
<path d="M5.39934 18.7128L5.34344 18.6569M5.39934 18.7128L5.28727 18.6008M5.39934 18.7128C6.1582 19.4717 7.38073 19.4964 8.16958 18.7687L8.96461 18.0354M5.34344 18.6569L5.28727 18.6008M5.34344 18.6569L3.22217 20.7782M5.28727 18.6008C4.52849 17.842 4.50374 16.6197 5.23117 15.8308L5.96461 15.0354M8.96461 18.0354L5.96461 15.0354M8.96461 18.0354C9.30786 18.3786 9.86438 18.3786 10.2076 18.0354L17.3643 10.8787C18.1453 10.0977 18.1453 8.83134 17.3643 8.05029L15.9501 6.63608C15.169 5.85503 13.9027 5.85503 13.1217 6.63608L5.96462 13.7931C5.62158 14.1362 5.62157 14.6924 5.96461 15.0354M18.7783 5.22192L16.657 7.34324M18.7783 5.22192L16.657 3.10059M18.7783 5.22192L20.8996 7.34323" stroke="#0E0B20" stroke-width="1.5" stroke-linecap="round" stroke-linejoin="round"/>
</svg>
