<svg width="24" height="24" viewBox="0 0 24 24" fill="none" xmlns="http://www.w3.org/2000/svg">
<path d="M11.0002 12C11.0002 12.8284 10.3286 13.5 9.50018 13.5C8.67176 13.5 8.00018 12.8284 8.00018 12C8.00018 11.1716 8.67176 10.5 9.50018 10.5C10.3286 10.5 11.0002 11.1716 11.0002 12Z" stroke="#0E0B20" stroke-width="1.5" stroke-linecap="round" stroke-linejoin="round"/>
<path d="M21.0002 16V8C21.0002 6.89543 20.1048 6 19.0002 6H8.82861C8.29818 6 7.78947 6.21071 7.4144 6.58579L3.4144 10.5858C2.63335 11.3668 2.63335 12.6332 3.4144 13.4142L7.4144 17.4142C7.78947 17.7893 8.29818 18 8.82861 18H19.0002C20.1048 18 21.0002 17.1046 21.0002 16Z" stroke="#0E0B20" stroke-width="1.5" stroke-linecap="round" stroke-linejoin="round"/>
</svg>
