<svg width="20" height="20" viewBox="0 0 20 20" fill="none" xmlns="http://www.w3.org/2000/svg">
<path fill-rule="evenodd" clip-rule="evenodd" d="M8.9262 3.86073L8.92349 3.86312C8.92162 3.8306 8.91975 3.79614 8.9178 3.75955L8.91407 3.68971C8.89807 3.39692 8.87335 2.95387 8.69278 2.60381C8.59473 2.41369 8.4426 2.23233 8.21127 2.11767C7.98264 2.00433 7.72113 1.97822 7.44207 2.01653C7.19464 2.05049 6.97518 2.14984 6.80193 2.31714C6.63211 2.48113 6.53127 2.68655 6.4758 2.89629C6.36807 3.30331 6.4138 3.78964 6.52509 4.25784C6.75011 5.20431 7.29735 6.2961 7.91269 7.03876C8.14944 7.32449 8.22211 7.75505 8.22211 7.94052V8.9172L9.111 9.13873V8.55611C9.50327 8.41078 9.76824 8.34433 10.0167 8.33923C10.2576 8.33431 10.5147 8.38708 10.8888 8.54118V9.13873L11.7777 8.9172V7.94052C11.7777 7.75505 11.8503 7.32449 12.0871 7.03876C12.6983 6.30106 13.2728 5.21419 13.5269 4.27051C13.6522 3.80473 13.715 3.31861 13.6209 2.91011C13.5723 2.69912 13.4773 2.48984 13.3089 2.32201C13.1369 2.15059 12.9163 2.05055 12.6685 2.01653C12.3895 1.97822 12.128 2.00433 11.8993 2.11767C11.668 2.23233 11.5159 2.41369 11.4178 2.60381C11.2373 2.95387 11.2126 3.39692 11.1966 3.68971L11.1928 3.75954C11.1909 3.79614 11.189 3.8306 11.1871 3.86312L11.1844 3.86073C10.9722 3.6723 10.6914 3.60813 10.5022 3.58048C10.3572 3.55931 10.2164 3.55341 10.1107 3.55176V3.55113H10.1051C10.0903 3.55113 10.0737 3.55113 10.0553 3.55122C10.037 3.55113 10.0204 3.55113 10.0056 3.55113H9.99989V3.55176C9.8942 3.55341 9.75336 3.55931 9.60842 3.58048C9.41918 3.60813 9.13838 3.6723 8.9262 3.86073ZM9.51749 4.52235C9.51749 4.52235 9.52144 4.51911 9.53033 4.51424C9.53669 4.5107 9.545 4.50666 9.5554 4.50232V6.48037H10.4443V4.46976C10.479 4.47707 10.5094 4.48544 10.5351 4.49457C10.5555 4.50188 10.5702 4.5087 10.5803 4.51424C10.5892 4.51916 10.5932 4.52244 10.5932 4.52244C10.7813 4.68947 10.9723 4.83036 11.1639 4.89425C11.2669 4.92864 11.398 4.9503 11.5391 4.91596C11.6879 4.87977 11.7989 4.79328 11.8738 4.69625C12.0005 4.53218 12.0345 4.32297 12.0506 4.19732C12.0665 4.07335 12.074 3.93046 12.0808 3.80084L12.0841 3.73788C12.1022 3.40727 12.1295 3.16189 12.2083 3.00899C12.24 2.94763 12.2694 2.92388 12.2951 2.91111C12.3235 2.89703 12.3946 2.8734 12.5473 2.89437C12.6277 2.9054 12.6621 2.93039 12.6805 2.9487C12.7024 2.97058 12.7332 3.01571 12.7546 3.10849C12.8005 3.30755 12.7799 3.62647 12.6684 4.04083C12.4486 4.85735 11.9349 5.83097 11.4018 6.47447C11.1041 6.83366 10.9701 7.27424 10.9177 7.60588C10.6002 7.50034 10.305 7.44704 9.99847 7.45329C9.69607 7.45949 9.40136 7.52378 9.08522 7.62612C9.03513 7.29232 8.90175 6.84102 8.59802 6.47447C8.069 5.83594 7.58349 4.86723 7.39002 4.0535C7.29211 3.64157 7.2822 3.32284 7.33527 3.12231C7.36015 3.02828 7.3938 2.9793 7.42042 2.95357C7.44367 2.93115 7.48255 2.90545 7.56335 2.89437C7.71602 2.8734 7.78709 2.89703 7.81549 2.91111C7.84127 2.92388 7.87064 2.94763 7.90229 3.00899C7.98113 3.16189 8.00842 3.40727 8.02647 3.73788L8.02984 3.80081C8.03664 3.93046 8.04416 4.07335 8.06002 4.19732C8.07607 4.32297 8.11015 4.53218 8.23678 4.69625C8.31171 4.79328 8.42269 4.87977 8.57149 4.91596C8.7126 4.9503 8.84371 4.92864 8.94669 4.89425C9.13833 4.83036 9.32935 4.68943 9.51749 4.52235Z" fill="#0E0B20"/>
<path fill-rule="evenodd" clip-rule="evenodd" d="M9.9999 18C10.9817 18 11.7776 17.2066 11.7777 16.2278L11.7777 15.2678L10.8888 14.3079V15.0382C10.4966 15.1835 10.2316 15.2499 9.98315 15.255C9.7423 15.26 9.48515 15.2072 9.11106 15.0531V14.3079L8.22217 15.2678V16.2278C8.22217 17.2065 9.01808 18 9.9999 18ZM9.9999 17.1139C9.50901 17.1139 9.11106 16.7172 9.11101 16.2278L9.11106 15.9979C9.41759 16.0971 9.70417 16.1471 10.0014 16.141C10.2955 16.135 10.5824 16.0739 10.8888 15.9764V16.2278C10.8888 16.7172 10.4908 17.1139 9.9999 17.1139Z" fill="#0E0B20"/>
<path d="M4.22252 7.80946C4.46799 7.80946 4.66697 7.6111 4.66697 7.3664C4.66697 7.1217 4.46799 6.92334 4.22252 6.92334C3.97705 6.92334 3.77808 7.1217 3.77808 7.3664C3.77808 7.6111 3.97705 7.80946 4.22252 7.80946Z" fill="#0E0B20"/>
<path d="M5.55539 9.13862C5.55539 9.38332 5.35642 9.58168 5.11095 9.58168C4.86548 9.58168 4.6665 9.38332 4.6665 9.13862C4.6665 8.89392 4.86548 8.69556 5.11095 8.69556C5.35642 8.69556 5.55539 8.89392 5.55539 9.13862Z" fill="#0E0B20"/>
<path d="M4.22252 11.3541C4.46799 11.3541 4.66697 11.1558 4.66697 10.9111C4.66697 10.6664 4.46799 10.468 4.22252 10.468C3.97705 10.468 3.77808 10.6664 3.77808 10.9111C3.77808 11.1558 3.97705 11.3541 4.22252 11.3541Z" fill="#0E0B20"/>
<path d="M6.88889 13.1262C6.88889 13.3709 6.68991 13.5692 6.44444 13.5692C6.19898 13.5692 6 13.3709 6 13.1262C6 12.8815 6.19898 12.6831 6.44444 12.6831C6.68991 12.6831 6.88889 12.8815 6.88889 13.1262Z" fill="#0E0B20"/>
<path d="M4.66637 13.5692C4.91183 13.5692 5.11081 13.3709 5.11081 13.1262C5.11081 12.8815 4.91183 12.6831 4.66637 12.6831C4.4209 12.6831 4.22192 12.8815 4.22192 13.1262C4.22192 13.3709 4.4209 13.5692 4.66637 13.5692Z" fill="#0E0B20"/>
<path d="M6.88889 11.3539C6.88889 11.5987 6.68991 11.797 6.44444 11.797C6.19898 11.797 6 11.5987 6 11.3539C6 11.1092 6.19898 10.9109 6.44444 10.9109C6.68991 10.9109 6.88889 11.1092 6.88889 11.3539Z" fill="#0E0B20"/>
<path d="M8.22252 12.2402C8.46799 12.2402 8.66697 12.0419 8.66697 11.7972C8.66697 11.5525 8.46799 11.3541 8.22252 11.3541C7.97705 11.3541 7.77808 11.5525 7.77808 11.7972C7.77808 12.0419 7.97705 12.2402 8.22252 12.2402Z" fill="#0E0B20"/>
<path d="M15.3335 7.3664C15.3335 7.6111 15.5325 7.80946 15.7779 7.80946C16.0234 7.80946 16.2224 7.6111 16.2224 7.3664C16.2224 7.1217 16.0234 6.92334 15.7779 6.92334C15.5325 6.92334 15.3335 7.1217 15.3335 7.3664Z" fill="#0E0B20"/>
<path d="M14.889 9.58168C14.6436 9.58168 14.4446 9.38332 14.4446 9.13862C14.4446 8.89392 14.6436 8.69556 14.889 8.69556C15.1345 8.69556 15.3335 8.89392 15.3335 9.13862C15.3335 9.38332 15.1345 9.58168 14.889 9.58168Z" fill="#0E0B20"/>
<path d="M15.3335 10.9111C15.3335 11.1558 15.5325 11.3541 15.7779 11.3541C16.0234 11.3541 16.2224 11.1558 16.2224 10.9111C16.2224 10.6664 16.0234 10.468 15.7779 10.468C15.5325 10.468 15.3335 10.6664 15.3335 10.9111Z" fill="#0E0B20"/>
<path d="M13.5555 13.5692C13.3101 13.5692 13.1111 13.3709 13.1111 13.1262C13.1111 12.8815 13.3101 12.6831 13.5555 12.6831C13.801 12.6831 14 12.8815 14 13.1262C14 13.3709 13.801 13.5692 13.5555 13.5692Z" fill="#0E0B20"/>
<path d="M14.8889 13.1262C14.8889 13.3709 15.0879 13.5692 15.3334 13.5692C15.5788 13.5692 15.7778 13.3709 15.7778 13.1262C15.7778 12.8815 15.5788 12.6831 15.3334 12.6831C15.0879 12.6831 14.8889 12.8815 14.8889 13.1262Z" fill="#0E0B20"/>
<path d="M13.5555 11.797C13.3101 11.797 13.1111 11.5987 13.1111 11.3539C13.1111 11.1092 13.3101 10.9109 13.5555 10.9109C13.801 10.9109 14 11.1092 14 11.3539C14 11.5987 13.801 11.797 13.5555 11.797Z" fill="#0E0B20"/>
<path d="M11.3335 11.7972C11.3335 12.0419 11.5325 12.2402 11.7779 12.2402C12.0234 12.2402 12.2224 12.0419 12.2224 11.7972C12.2224 11.5525 12.0234 11.3541 11.7779 11.3541C11.5325 11.3541 11.3335 11.5525 11.3335 11.7972Z" fill="#0E0B20"/>
<path d="M9.99986 12.2402C10.2453 12.2402 10.4443 12.0419 10.4443 11.7972C10.4443 11.5525 10.2453 11.3541 9.99986 11.3541C9.7544 11.3541 9.55542 11.5525 9.55542 11.7972C9.55542 12.0419 9.7544 12.2402 9.99986 12.2402Z" fill="#0E0B20"/>
<path fill-rule="evenodd" clip-rule="evenodd" d="M14.1006 5.91547C14.3694 5.24826 14.732 4.74468 15.1726 4.46728C15.6371 4.1749 16.1628 4.15435 16.6306 4.42271C17.0712 4.67543 17.4098 5.15349 17.6371 5.76151C17.8672 6.37687 18 7.16681 18 8.11168V12.6252C18 13.0014 17.9271 13.8726 17.5036 14.6669C17.0636 15.4917 16.2422 16.2278 14.8205 16.2278C14.1116 16.2278 13.5823 16.0281 13.1527 15.7178C12.7684 15.4402 12.4746 15.0789 12.2197 14.7654L12.168 14.7019C11.8882 14.3587 11.64 14.0689 11.3159 13.8554C11.0049 13.6506 10.6018 13.5031 10 13.5031C9.39822 13.5031 8.99507 13.6506 8.68409 13.8554C8.35996 14.0689 8.11182 14.3587 7.832 14.7019L7.78031 14.7654C7.52538 15.0789 7.2316 15.4402 6.84729 15.7178C6.41773 16.0281 5.88844 16.2278 5.17947 16.2278C3.75777 16.2278 2.93633 15.4917 2.49646 14.6669C2.07293 13.8726 2 13.0014 2 12.6252V8.11168C2 7.16681 2.13279 6.37687 2.36288 5.76151C2.59021 5.15349 2.92877 4.67543 3.36937 4.42271C3.8372 4.15435 4.36293 4.1749 4.82738 4.46728C5.26804 4.74468 5.63062 5.24826 5.89942 5.91547C5.96778 6.08512 6.03458 6.26801 6.10453 6.45933C6.33498 7.09007 6.59911 7.81297 7.06329 8.45979C7.6384 9.2612 8.50498 9.90882 10 9.90882C11.495 9.90882 12.3616 9.2612 12.9367 8.45979C13.4009 7.81297 13.665 7.09007 13.8955 6.45933C13.9654 6.2681 14.0323 6.08503 14.1006 5.91547ZM6.34036 8.97534C7.05796 9.97533 8.17858 10.7949 10 10.7949C11.8214 10.7949 12.942 9.97533 13.6596 8.97534C14.2032 8.21788 14.5253 7.33233 14.7573 6.69419C14.8189 6.52499 14.8741 6.37315 14.9254 6.24573C15.1562 5.67289 15.4238 5.35721 15.6472 5.21654C15.8469 5.0908 16.0194 5.09443 16.1873 5.19075C16.3824 5.30267 16.6172 5.57081 16.8042 6.07098C16.9885 6.5638 17.1111 7.24403 17.1111 8.11168V12.6252C17.1111 12.9261 17.0473 13.6347 16.7187 14.2509C16.4064 14.8365 15.8603 15.3417 14.8205 15.3417C14.2987 15.3417 13.952 15.2008 13.6743 15.0002C13.388 14.7934 13.1627 14.517 12.888 14.18L12.8577 14.1428C12.582 13.8048 12.2574 13.4135 11.8059 13.1161C11.3412 12.81 10.7657 12.6169 10 12.6169C9.23427 12.6169 8.65876 12.81 8.19409 13.1161C7.74258 13.4135 7.41804 13.8048 7.14231 14.1428L7.112 14.18C6.83733 14.517 6.61204 14.7934 6.32573 15.0002C6.04804 15.2008 5.70129 15.3417 5.17947 15.3417C4.13969 15.3417 3.59361 14.8365 3.28134 14.2509C2.95272 13.6347 2.88889 12.9261 2.88889 12.6252V8.11168C2.88889 7.24403 3.01152 6.5638 3.19579 6.07098C3.38281 5.57081 3.61754 5.30267 3.81267 5.19075C3.98058 5.09443 4.15307 5.0908 4.35276 5.21654C4.57622 5.35721 4.84378 5.67289 5.07458 6.24573C5.12587 6.37311 5.18107 6.52486 5.24258 6.69397C5.47467 7.33211 5.79676 8.21788 6.34036 8.97534Z" fill="#0E0B20"/>
</svg>
