<svg id="time-sensitive" width="100" height="100" viewBox="0 0 100 100" fill="none" xmlns="http://www.w3.org/2000/svg">
<path d="M50.0406 62.6841C52.7623 62.6841 56.7353 61.172 56.7353 55.7182C56.7353 50.2644 50.0406 42.2245 50.0406 42.2245C50.0406 42.2245 43.3458 50.2644 43.3458 55.7182C43.3458 61.172 47.3189 62.6841 50.0406 62.6841Z" fill="#FFD45A"/>
<path d="M50.0406 82.2572C66.5868 82.2572 80 68.844 80 52.2979C80 35.7518 66.5868 22.3385 50.0406 22.3385C33.4945 22.3385 20.0813 35.7518 20.0813 52.2979C20.0813 68.844 33.4945 82.2572 50.0406 82.2572Z" stroke="#161919" stroke-width="1.5" stroke-miterlimit="10"/>
<path d="M50.0406 27.0623V32.9019" stroke="#161919" stroke-width="1.5" stroke-miterlimit="10"/>
<path d="M24.8052 52.2979H30.6448" stroke="#161919" stroke-width="1.5" stroke-miterlimit="10"/>
<path d="M50.0406 77.5334V71.6937" stroke="#161919" stroke-width="1.5" stroke-miterlimit="10"/>
<path d="M75.2761 52.2979H69.4365" stroke="#161919" stroke-width="1.5" stroke-miterlimit="10"/>
<path d="M32.1984 34.4557L36.3278 38.5852" stroke="#161919" stroke-width="1.5" stroke-miterlimit="10"/>
<path d="M32.1984 70.14L36.3278 66.0106" stroke="#161919" stroke-width="1.5" stroke-miterlimit="10"/>
<path d="M67.8828 70.14L63.7534 66.0106" stroke="#161919" stroke-width="1.5" stroke-miterlimit="10"/>
<path d="M67.8828 34.4557L63.7534 38.5852" stroke="#161919" stroke-width="1.5" stroke-miterlimit="10"/>
<path d="M60.3644 17.6147H39.9362" stroke="#161919" stroke-width="1.5" stroke-miterlimit="10"/>
<path d="M77.195 30.3993L72.0957 25.3" stroke="#161919" stroke-width="1.5" stroke-miterlimit="10"/>
<path d="M28.142 25.1436L23.0427 30.2428" stroke="#161919" stroke-width="1.5" stroke-miterlimit="10"/>
<path d="M50.1552 17.6147V22.3385" stroke="#161919" stroke-width="1.5" stroke-miterlimit="10"/>
</svg>
