<svg width="24" height="24" viewBox="0 0 24 24" fill="none" xmlns="http://www.w3.org/2000/svg">
<g clip-path="url(#clip0_827_17954)">
<path d="M5.96399 5.96399L10.8855 10.8855" stroke="#0E0B20" stroke-linecap="round" stroke-linejoin="round"/>
<path d="M17.4825 8.26199C18.013 7.14522 18.1324 5.87704 17.8196 4.68088C17.5068 3.48472 16.7819 2.43734 15.7725 1.72327C14.7632 1.0092 13.5342 0.674273 12.3021 0.777489C11.0701 0.880705 9.91395 1.41544 9.03749 2.28749L2.28749 9.03749C1.41544 9.91395 0.880705 11.0701 0.777489 12.3021C0.674273 13.5342 1.0092 14.7632 1.72327 15.7725C2.43734 16.7819 3.48472 17.5068 4.68088 17.8196C5.87704 18.1324 7.14522 18.013 8.26199 17.4825" stroke="#0E0B20" stroke-linecap="round" stroke-linejoin="round"/>
<path d="M17.25 23.25C20.5637 23.25 23.25 20.5637 23.25 17.25C23.25 13.9363 20.5637 11.25 17.25 11.25C13.9363 11.25 11.25 13.9363 11.25 17.25C11.25 20.5637 13.9363 23.25 17.25 23.25Z" stroke="#0E0B20" stroke-linecap="round" stroke-linejoin="round"/>
</g>
<defs>
<clipPath id="clip0_827_17954">
<rect width="24" height="24" fill="white"/>
</clipPath>
</defs>
</svg>
