<svg id="treat" width="100" height="100" viewBox="0 0 100 100" fill="none" xmlns="http://www.w3.org/2000/svg">
<g clip-path="url(#clip0)">
<path d="M86.0672 55.4993H67.7968C58.333 55.4993 59.516 51.6874 54.7183 50.2416C49.9207 48.7957 50.8408 55.4993 39.4054 55.4993H14.1028" stroke="#161919" stroke-width="1.5" stroke-miterlimit="10" stroke-linecap="round"/>
<path d="M90.5362 50.4388H67.7968C58.333 50.4388 59.516 46.6269 54.7184 45.1811C49.9207 43.7352 50.8408 50.4388 39.4054 50.4388H20.8721" stroke="#161919" stroke-width="1.5" stroke-miterlimit="10" stroke-linecap="round"/>
<path d="M95.0052 45.3125H67.7311C58.2673 45.3125 59.516 41.5007 54.7183 40.0549C49.9207 38.609 50.8408 45.3125 39.4054 45.3125H27.5756" stroke="#161919" stroke-width="1.5" stroke-miterlimit="10" stroke-linecap="round"/>
<path d="M81.5325 60.7569H67.7311C58.2673 60.7569 59.4503 57.1423 54.6526 55.7621C49.855 54.382 50.7751 60.7569 39.3397 60.7569H7.39935" stroke="#FFD45A" stroke-width="2" stroke-miterlimit="10"/>
<path d="M99.54 40.1863H67.7968C58.2673 40.1863 59.516 36.3088 54.7184 34.8629C49.855 33.4171 50.7751 40.1863 39.3397 40.1863H34.3449" stroke="#161919" stroke-width="1.5" stroke-miterlimit="10" stroke-linecap="round"/>
<path d="M77.0634 65.9489H67.7311C58.2673 65.9489 59.4502 62.0714 54.6526 60.6255C49.855 59.1796 50.7751 65.9489 39.3397 65.9489H0.695801" stroke="#161919" stroke-width="1.5" stroke-miterlimit="10" stroke-linecap="round"/>
</g>
<defs>
<clipPath id="clip0">
<rect width="99.83" height="32.3347" fill="white" transform="translate(0.170044 34.14)"/>
</clipPath>
</defs>
</svg>
