<svg id="treatment" width="100" height="100" viewBox="0 0 100 100" fill="none" xmlns="http://www.w3.org/2000/svg">
<g clip-path="url(#clip0)">
<path d="M84.0834 67.6667C85.1668 68.3334 85.5834 69.75 84.9168 70.8334C84.2501 71.9167 82.8334 72.3334 81.7501 71.6667C80.6668 71 80.2501 69.5834 80.9168 68.5C81.5834 67.4167 83.0001 67.0834 84.0834 67.6667Z" fill="#FFD45A"/>
<path d="M63.6668 43.25L69.1668 60.8333C64.3334 62.3333 59.1668 59.6667 57.5834 54.8333C56.0834 49.9167 58.7501 44.75 63.6668 43.25Z" fill="#FFD45A"/>
<path d="M51.5001 11.3334C52.5834 12 53.0001 13.4167 52.3334 14.5C51.6667 15.5834 50.2501 16 49.1667 15.3334C48.0834 14.6667 47.6667 13.25 48.3334 12.1667C49.0001 11 50.4167 10.6667 51.5001 11.3334Z" fill="#FFD45A"/>
<path d="M19.0001 67.75C20.0834 68.4167 20.5001 69.8333 19.8334 70.9167C19.1667 72 17.7501 72.4167 16.6667 71.75C15.5834 71.0833 15.1667 69.6667 15.8334 68.5834C16.4167 67.5 17.8334 67.0834 19.0001 67.75Z" fill="#FFD45A"/>
<path d="M37.25 38.9167L46.0833 30.0834C48.9166 27.25 53.5 27.25 56.25 30.0834C57.6666 31.5 58.3333 33.3334 58.3333 35.1667C58.3333 37 57.6666 38.8334 56.25 40.25L47.5 49.1667L38.6666 57.9167C35.8333 60.75 31.25 60.75 28.5 57.9167C27.0833 56.5 26.4166 54.6667 26.4166 52.8334C26.4166 51 27.0833 49.1667 28.5 47.75L37.25 38.9167Z" stroke="#161919" stroke-width="1.5" stroke-miterlimit="10"/>
<path d="M47.5 49.1667L37.25 38.9167" stroke="#161919" stroke-width="1.5" stroke-miterlimit="10"/>
<path d="M15.5 65.75C11 55.1667 11.4167 42.6667 17.5833 32C23.75 21.25 34.4167 14.75 45.75 13.3334" stroke="#161919" stroke-width="1.5" stroke-miterlimit="10"/>
<path d="M80.6666 73.6667C69.3333 88.75 48.25 93.3334 31.5 83.6667C26.9166 81 23.1666 77.5834 20.1666 73.6667" stroke="#161919" stroke-width="1.5" stroke-miterlimit="10"/>
<path d="M55 13.3334C59.9167 13.9167 64.75 15.5 69.3333 18.1667C86.0833 27.8334 92.6667 48.4167 85.25 65.75" stroke="#161919" stroke-width="1.5" stroke-miterlimit="10"/>
<path d="M49 65.0833C50.979 65.0833 52.5833 63.479 52.5833 61.5C52.5833 59.521 50.979 57.9167 49 57.9167C47.0209 57.9167 45.4166 59.521 45.4166 61.5C45.4166 63.479 47.0209 65.0833 49 65.0833Z" stroke="#161919" stroke-width="1.5" stroke-miterlimit="10"/>
<path d="M57.5833 54.8333C56.0833 50 58.7499 44.8333 63.5833 43.25C68.4166 41.75 73.5833 44.4167 75.1666 49.25C76.6666 54.0833 73.9999 59.25 69.1666 60.8333C64.3333 62.3333 59.1666 59.6667 57.5833 54.8333Z" stroke="#161919" stroke-width="1.5" stroke-miterlimit="10"/>
<path d="M63.6666 43.25L69.1666 60.8333" stroke="#161919" stroke-width="1.5" stroke-miterlimit="10"/>
</g>
<defs>
<clipPath id="clip0">
<rect width="77.4167" height="78.8333" fill="white" transform="translate(11.6666 10.8333)"/>
</clipPath>
</defs>
</svg>
