<svg width="24" height="24" viewBox="0 0 24 24" fill="none" xmlns="http://www.w3.org/2000/svg">
<path d="M11.9998 12V21M11.9998 4C14.1215 4 16.1563 4.84285 17.6566 6.34315C18.9653 7.65184 19.7738 9.36728 19.9589 11.1923C19.9964 11.5621 19.6086 11.8044 19.2762 11.6382L18.2234 11.1118C18.0826 11.0414 17.9169 11.0414 17.7762 11.1118L16.2234 11.8882C16.0826 11.9586 15.9169 11.9586 15.7762 11.8882L14.2234 11.1118C14.0826 11.0414 13.9169 11.0414 13.7762 11.1118L12.2234 11.8882C12.0826 11.9586 11.9169 11.9586 11.7762 11.8882L10.2234 11.1118C10.0826 11.0414 9.91692 11.0414 9.77615 11.1118L8.22337 11.8882C8.0826 11.9586 7.91692 11.9586 7.77615 11.8882L6.22337 11.1118C6.0826 11.0414 5.91692 11.0414 5.77615 11.1118L4.72337 11.6382C4.39092 11.8044 4.0031 11.5621 4.04061 11.1923C4.22575 9.36727 5.03421 7.65184 6.34291 6.34315C7.8432 4.84285 9.87803 4 11.9998 4ZM11.9998 4L11.9998 3" stroke="#0E0B20" stroke-width="1.5" stroke-linecap="round" stroke-linejoin="round"/>
</svg>
