<svg id="users" width="18" height="18" viewBox="0 0 18 18" fill="none" xmlns="http://www.w3.org/2000/svg">
<path d="M12.7499 15.75V14.25C12.7499 13.4544 12.4339 12.6913 11.8713 12.1287C11.3087 11.5661 10.5456 11.25 9.74994 11.25H3.74994C2.95429 11.25 2.19123 11.5661 1.62862 12.1287C1.06601 12.6913 0.749939 13.4544 0.749939 14.25V15.75" stroke="#161919" stroke-linecap="round" stroke-linejoin="round"/>
<path d="M6.75006 8.25C8.40692 8.25 9.75006 6.90685 9.75006 5.25C9.75006 3.59315 8.40692 2.25 6.75006 2.25C5.09321 2.25 3.75006 3.59315 3.75006 5.25C3.75006 6.90685 5.09321 8.25 6.75006 8.25Z" stroke="#161919" stroke-linecap="round" stroke-linejoin="round"/>
<path d="M17.2501 15.7501V14.2501C17.2496 13.5854 17.0283 12.9396 16.6211 12.4143C16.2138 11.889 15.6437 11.5137 15.0001 11.3476" stroke="#161919" stroke-linecap="round" stroke-linejoin="round"/>
<path d="M11.9999 2.34756C12.6453 2.51279 13.2172 2.88809 13.6257 3.4143C14.0341 3.9405 14.2558 4.58769 14.2558 5.25381C14.2558 5.91994 14.0341 6.56712 13.6257 7.09333C13.2172 7.61954 12.6453 7.99484 11.9999 8.16006" stroke="#161919" stroke-linecap="round" stroke-linejoin="round"/>
</svg>
