<svg
  width="40"
  height="40"
  viewBox="0 0 40 40"
  fill="none"
  xmlns="http://www.w3.org/2000/svg"
>
  <g clip-path="url(#clip0_297_2655)">
    <path
      d="M8.56665 34.3317C9.64832 29.0067 14.3567 25 20 25C25.6433 25 30.3417 28.9983 31.43 34.315"
      fill="#0E0B20"
    />
    <path
      d="M8.56665 34.3317C9.64832 29.0067 14.3567 25 20 25C25.6433 25 30.3417 28.9983 31.43 34.315C29.9811 35.9322 25.6666 38.6667 20 38.3333C14.3333 38 10.0167 35.6656 8.56665 34.3317Z"
      fill="#0E0B20"
    />
    <path
      d="M8.56665 34.3317C9.64832 29.0067 14.3567 25 20 25C25.6433 25 30.3417 28.9983 31.43 34.315C29.9811 35.9322 25.6666 38.6667 20 38.3333C14.3333 38 10.0167 35.6656 8.56665 34.3317Z"
      stroke="#0E0B20"
      stroke-width="2"
      stroke-miterlimit="10"
    />
    <path
      d="M20.0001 38.3334C30.1253 38.3334 38.3334 30.1252 38.3334 20C38.3334 9.8748 30.1253 1.66669 20.0001 1.66669C9.87486 1.66669 1.66675 9.8748 1.66675 20C1.66675 30.1252 9.87486 38.3334 20.0001 38.3334Z"
      stroke="#0E0B20"
      stroke-width="2"
      stroke-miterlimit="10"
      stroke-linecap="square"
    />
    <path
      d="M20 20C22.7614 20 25 17.7614 25 15C25 12.2386 22.7614 10 20 10C17.2386 10 15 12.2386 15 15C15 17.7614 17.2386 20 20 20Z"
      fill="#0E0B20"
      stroke="#0E0B20"
      stroke-width="2"
      stroke-miterlimit="10"
      stroke-linecap="square"
    />
  </g>
  <defs>
    <clipPath id="clip0_297_2655">
      <rect width="40" height="40" fill="white" />
    </clipPath>
  </defs>
</svg>