<svg width="20" height="21" viewBox="0 0 20 21" fill="none" xmlns="http://www.w3.org/2000/svg">
<g clip-path="url(#clip0_534_6325)">
<path d="M10 0.5C4.4775 0.5 0 4.9775 0 10.5C0 16.0225 4.4775 20.5 10 20.5C15.5225 20.5 20 16.0225 20 10.5C20 4.9775 15.5225 0.5 10 0.5ZM10 5.5C11.6108 5.5 12.9167 6.80583 12.9167 8.41667C12.9167 10.0275 11.6108 11.3333 10 11.3333C8.38917 11.3333 7.08333 10.0275 7.08333 8.41667C7.08333 6.80583 8.38917 5.5 10 5.5ZM10 18.8333C7.91167 18.8333 6.00583 18.0558 4.54167 16.7817C5.3725 14.5733 7.50083 13 10 13C12.4992 13 14.6275 14.5733 15.4583 16.7817C13.9942 18.055 12.0883 18.8333 10 18.8333Z" fill="#0E0B20"/>
</g>
<defs>
<clipPath id="clip0_534_6325">
<rect width="20" height="20" fill="white" transform="translate(0 0.5)"/>
</clipPath>
</defs>
</svg>
