<svg width="24" height="24" viewBox="0 0 24 24" fill="none" xmlns="http://www.w3.org/2000/svg">
<path d="M21.6337 7.36625L16.6337 2.36625C16.3994 2.13181 16.0815 2.00007 15.75 2H8.25C7.91851 2.00007 7.60062 2.13181 7.36625 2.36625L2.36625 7.36625C2.13181 7.60062 2.00007 7.91851 2 8.25L2 15.75C2.00007 16.0815 2.13181 16.3994 2.36625 16.6337L7.36625 21.6337C7.60062 21.8682 7.91851 21.9999 8.25 22H15.75C16.0815 21.9999 16.3994 21.8682 16.6337 21.6337L21.6337 16.6337C21.8682 16.3994 21.9999 16.0815 22 15.75V8.25C21.9999 7.91851 21.8682 7.60062 21.6337 7.36625ZM12 17C11.7528 17 11.5111 16.9267 11.3055 16.7893C11.1 16.652 10.9398 16.4568 10.8452 16.2284C10.7505 15.9999 10.7258 15.7486 10.774 15.5061C10.8222 15.2637 10.9413 15.0409 11.1161 14.8661C11.2909 14.6913 11.5137 14.5722 11.7561 14.524C11.9986 14.4758 12.2499 14.5005 12.4784 14.5952C12.7068 14.6898 12.902 14.85 13.0393 15.0555C13.1767 15.2611 13.25 15.5028 13.25 15.75C13.25 16.0815 13.1183 16.3995 12.8839 16.6339C12.6495 16.8683 12.3315 17 12 17ZM13.25 12.625C13.25 12.7908 13.1842 12.9497 13.0669 13.0669C12.9497 13.1842 12.7908 13.25 12.625 13.25H11.375C11.2092 13.25 11.0503 13.1842 10.9331 13.0669C10.8158 12.9497 10.75 12.7908 10.75 12.625V7.625C10.75 7.45924 10.8158 7.30027 10.9331 7.18306C11.0503 7.06585 11.2092 7 11.375 7H12.625C12.7908 7 12.9497 7.06585 13.0669 7.18306C13.1842 7.30027 13.25 7.45924 13.25 7.625V12.625Z" fill="#0E0B20" />
</svg>
