<svg id="warning" width="20" height="20" viewBox="0 0 20 20" fill="none" xmlns="http://www.w3.org/2000/svg">
<path d="M10 7.5V11.25" stroke="#161919" stroke-width="1.36364" stroke-linecap="round" stroke-linejoin="round"/>
<path d="M8.91807 3.12381L2.04493 14.9982C1.93495 15.1882 1.87695 15.4038 1.87677 15.6234C1.87659 15.8429 1.93423 16.0586 2.04389 16.2488C2.15356 16.439 2.31138 16.5969 2.50147 16.7068C2.69157 16.8166 2.90724 16.8744 3.12677 16.8744H16.8731C17.0926 16.8744 17.3083 16.8166 17.4984 16.7068C17.6885 16.5969 17.8463 16.439 17.9559 16.2488C18.0656 16.0586 18.1232 15.8429 18.1231 15.6234C18.1229 15.4038 18.0649 15.1882 17.9549 14.9982L11.0818 3.12381C10.972 2.93411 10.8142 2.77661 10.6243 2.66712C10.4344 2.55763 10.2191 2.5 9.99992 2.5C9.78073 2.5 9.5654 2.55763 9.37551 2.66712C9.18563 2.77661 9.02788 2.93411 8.91807 3.12381V3.12381Z" stroke="#161919" stroke-linecap="round" stroke-linejoin="round"/>
<path d="M10 15C10.5178 15 10.9375 14.5803 10.9375 14.0625C10.9375 13.5447 10.5178 13.125 10 13.125C9.48223 13.125 9.0625 13.5447 9.0625 14.0625C9.0625 14.5803 9.48223 15 10 15Z" fill="#161919"/>
</svg>
