<svg width="16" height="16" viewBox="0 0 16 16" fill="none" xmlns="http://www.w3.org/2000/svg">
<path d="M13.25 1.00001H2.75001C2.66873 0.999668 2.58827 1.01632 2.5138 1.0489C2.43933 1.08148 2.37249 1.12926 2.31757 1.18918C2.26265 1.2491 2.22085 1.31984 2.19487 1.39686C2.16889 1.47387 2.15928 1.55547 2.16668 1.63642L3.23651 13.4081C3.27432 13.8442 3.47493 14.2502 3.79844 14.5451C4.12194 14.8401 4.54464 15.0025 4.98242 15H11.0176C11.455 15.0019 11.8771 14.8393 12.2001 14.5443C12.5231 14.2494 12.7234 13.8438 12.7612 13.4081L13.8333 1.63642C13.8407 1.55547 13.8311 1.47387 13.8051 1.39686C13.7791 1.31984 13.7374 1.2491 13.6824 1.18918C13.6275 1.12926 13.5607 1.08148 13.4862 1.0489C13.4117 1.01632 13.3313 0.999668 13.25 1.00001ZM12.1341 7.41666H3.86593L3.39168 2.16667H12.6142L12.1341 7.41666Z" fill="#202020"/>
</svg>
